<?xml version="1.0" standalone="no"?>
<!DOCTYPE svg PUBLIC "-//W3C//DTD SVG 20010904//EN"
 "http://www.w3.org/TR/2001/REC-SVG-20010904/DTD/svg10.dtd">
<svg version="1.0" xmlns="http://www.w3.org/2000/svg"
 width="341.000000pt" height="176.000000pt" viewBox="0 0 341.000000 176.000000"
 preserveAspectRatio="xMidYMid meet">

<g transform="translate(0.000000,176.000000) scale(0.100000,-0.100000)"
fill="#000000" stroke="none">
<path d="M1525 1713 c34 -91 95 -265 95 -275 1 -11 91 221 107 275 5 15 -4 17
-102 17 -98 0 -107 -2 -100 -17z m117 -13 c28 0 38 3 29 9 -9 6 -5 9 13 9 27
0 30 -6 20 -32 -7 -19 -31 -21 -36 -4 -2 6 -9 8 -16 4 -18 -11 -3 -34 19 -29
20 6 28 -20 9 -32 -6 -4 -7 -12 -3 -18 5 -9 3 -9 -8 0 -11 9 -14 7 -16 -14 -1
-19 1 -22 8 -12 10 16 12 8 3 -15 -3 -9 -9 -14 -13 -12 -4 3 -7 -3 -8 -12 -3
-36 -10 -57 -19 -54 -5 1 -10 7 -10 12 -1 6 -3 13 -4 18 -6 18 3 48 17 59 11
9 12 16 4 30 -10 17 -10 17 -11 -3 0 -12 -6 -26 -13 -32 -10 -8 -16 -1 -28 33
-9 25 -12 42 -6 38 6 -4 8 0 4 11 -4 10 -7 22 -7 27 0 4 -6 7 -12 5 -7 -1 -10
-1 -5 1 4 3 7 11 7 19 0 11 4 12 19 4 11 -5 39 -10 63 -10z m-15 14 c-3 -3
-12 -4 -19 -1 -8 3 -5 6 6 6 11 1 17 -2 13 -5z"/>
<path d="M1575 1690 c3 -5 11 -10 16 -10 6 0 7 5 4 10 -3 6 -11 10 -16 10 -6
0 -7 -4 -4 -10z"/>
<path d="M1590 1600 c0 -5 5 -10 11 -10 5 0 7 5 4 10 -3 6 -8 10 -11 10 -2 0
-4 -4 -4 -10z"/>
<path d="M1300 1632 c0 -5 27 -75 60 -157 33 -82 60 -150 60 -152 0 -2 -57 -3
-128 -3 l-127 0 -25 -62 c-14 -35 -26 -66 -28 -70 -2 -4 81 -9 183 -10 l187
-3 35 -88 35 -88 76 3 75 3 93 235 c51 129 94 239 94 243 0 4 -37 7 -82 5
l-82 -3 -50 -139 c-37 -102 -52 -133 -58 -120 -4 11 -40 108 -79 217 l-72 197
-83 0 c-46 0 -84 -4 -84 -8z"/>
<path d="M2351 825 c-15 -26 -17 -35 -7 -35 8 0 26 16 40 35 25 32 25 35 7 35
-11 0 -27 -14 -40 -35z"/>
<path d="M70 668 l0 -168 85 0 c81 0 85 1 85 23 0 20 -4 22 -62 22 l-63 0 -3
53 -3 52 65 0 c62 0 66 1 66 23 0 20 -4 22 -62 22 l-63 0 -3 48 -3 47 65 0
c62 0 66 1 66 23 0 21 -4 22 -85 22 l-85 0 0 -167z"/>
<path d="M500 793 c0 -32 -4 -43 -15 -43 -8 0 -15 -9 -15 -20 0 -11 7 -20 15
-20 12 0 15 -18 15 -105 0 -98 1 -105 20 -105 19 0 20 7 20 105 0 98 1 105 20
105 13 0 20 7 20 20 0 13 -7 20 -20 20 -17 0 -20 7 -20 43 0 36 -3 43 -20 43
-17 0 -20 -7 -20 -43z"/>
<path d="M1830 715 c0 -66 -3 -130 -6 -143 -9 -31 -52 -41 -73 -16 -23 27 -51
27 -51 -1 0 -34 31 -55 83 -55 37 0 49 5 66 26 19 24 21 40 21 168 0 135 -1
142 -20 142 -19 0 -20 -7 -20 -121z"/>
<path d="M2650 778 c0 -62 -4 -66 -34 -43 -11 9 -41 15 -69 15 -42 0 -54 -5
-83 -34 -31 -31 -34 -40 -34 -91 0 -51 3 -60 34 -91 29 -29 41 -34 83 -34 28
0 58 6 69 15 25 19 38 19 30 0 -4 -11 1 -15 19 -15 l25 0 0 168 c0 161 -1 168
-20 168 -18 0 -20 -7 -20 -58z m-27 -99 c33 -35 34 -67 6 -103 -31 -39 -63
-49 -104 -32 -39 17 -55 42 -55 89 0 36 18 59 60 76 34 13 60 5 93 -30z"/>
<path d="M2750 810 c0 -19 5 -26 20 -26 15 0 20 7 20 26 0 19 -5 26 -20 26
-15 0 -20 -7 -20 -26z"/>
<path d="M1100 775 c0 -59 -4 -63 -34 -40 -33 25 -110 19 -145 -11 -60 -50
-60 -148 0 -198 36 -31 111 -36 147 -10 20 14 22 14 22 0 0 -10 9 -16 25 -16
l25 0 0 165 c0 158 -1 165 -20 165 -18 0 -20 -7 -20 -55z m-33 -89 c12 -11 25
-35 29 -52 5 -26 1 -38 -24 -65 -24 -27 -36 -33 -67 -32 -77 2 -117 92 -66
147 38 41 88 41 128 2z"/>
<path d="M1200 810 c0 -13 7 -20 20 -20 13 0 20 7 20 20 0 13 -7 20 -20 20
-13 0 -20 -7 -20 -20z"/>
<path d="M350 752 c-30 -9 -50 -36 -50 -67 0 -35 11 -48 63 -74 39 -19 48 -55
18 -71 -18 -9 -25 -7 -46 15 -13 15 -31 25 -39 23 -14 -3 -14 -7 1 -38 16 -31
23 -35 62 -38 56 -4 81 17 81 68 0 39 -18 62 -56 74 -12 4 -29 15 -38 25 -16
17 -16 20 -1 35 12 12 21 13 36 6 10 -6 19 -14 19 -18 0 -4 9 -8 20 -8 24 0
25 14 5 43 -15 21 -50 33 -75 25z"/>
<path d="M620 650 c0 -94 2 -103 25 -125 29 -30 98 -35 127 -8 17 15 18 15 18
0 0 -10 8 -17 20 -17 19 0 20 7 20 125 0 118 -1 125 -20 125 -18 0 -20 -7 -20
-69 0 -85 -13 -125 -47 -140 -23 -10 -31 -9 -52 7 -24 18 -26 26 -29 111 -2
83 -5 91 -22 91 -19 0 -20 -7 -20 -100z"/>
<path d="M1195 625 c0 -123 0 -125 23 -125 22 0 22 2 22 125 0 123 0 125 -22
125 -23 0 -23 -2 -23 -125z"/>
<path d="M1336 729 c-101 -80 -52 -229 75 -229 42 0 55 5 87 34 34 32 37 38
37 91 0 53 -3 59 -37 91 -32 29 -45 34 -87 34 -34 0 -56 -6 -75 -21z m103 -20
c31 -11 61 -52 61 -84 0 -32 -30 -73 -61 -84 -56 -19 -119 28 -119 88 0 24 37
70 64 81 11 5 21 9 22 9 1 1 15 -4 33 -10z"/>
<path d="M1930 666 c0 -89 8 -122 35 -149 19 -19 86 -23 116 -7 13 7 19 7 19
0 0 -5 9 -10 20 -10 19 0 20 7 20 125 0 118 -1 125 -20 125 -18 0 -20 -7 -20
-84 0 -96 -16 -128 -64 -128 -48 0 -61 23 -64 122 -4 81 -6 90 -23 90 -17 0
-19 -8 -19 -84z"/>
<path d="M2200 625 c0 -118 1 -125 20 -125 18 0 20 7 20 85 0 72 3 88 20 105
11 11 25 20 30 20 6 0 10 9 10 20 0 22 -12 25 -41 10 -13 -7 -19 -7 -19 0 0 5
-9 10 -20 10 -19 0 -20 -7 -20 -125z"/>
<path d="M2340 625 c0 -118 1 -125 20 -125 19 0 20 7 20 125 0 118 -1 125 -20
125 -19 0 -20 -7 -20 -125z"/>
<path d="M2750 625 c0 -118 1 -125 20 -125 19 0 20 7 20 125 0 118 -1 125 -20
125 -19 0 -20 -7 -20 -125z"/>
<path d="M2881 725 c-63 -53 -63 -146 0 -199 25 -21 41 -26 86 -26 47 0 59 4
84 29 36 36 37 51 4 51 -14 0 -25 -5 -25 -11 0 -18 -67 -40 -92 -30 -64 24
-83 101 -36 148 34 34 79 35 113 3 27 -25 65 -34 65 -16 -1 16 -32 52 -57 65
-40 20 -108 14 -142 -14z"/>
<path d="M3171 725 c-91 -77 -42 -225 75 -225 59 0 97 21 118 64 20 43 21 88
1 126 -32 63 -138 81 -194 35z m114 -19 c76 -32 76 -130 0 -162 -39 -16 -69
-8 -99 25 -45 50 -10 134 62 150 1 1 18 -5 37 -13z"/>
<path d="M1177 353 c304 -2 802 -2 1105 0 304 1 56 2 -552 2 -608 0 -856 -1
-553 -2z"/>
<path d="M885 185 l0 -65 36 0 c44 0 69 25 69 68 0 37 -30 62 -75 62 l-30 0 0
-65z m83 33 c30 -30 -3 -88 -50 -88 -15 0 -18 9 -18 50 0 48 1 50 28 50 15 0
33 -5 40 -12z"/>
<path d="M1327 238 c-39 -97 -45 -118 -38 -118 6 0 13 9 16 20 4 14 15 20 35
20 20 0 31 -6 35 -20 3 -11 10 -20 15 -20 4 0 -3 29 -18 65 -25 65 -35 76 -45
53z m23 -27 c0 -5 3 -16 6 -25 4 -12 0 -16 -15 -16 -22 0 -25 8 -15 34 7 17
24 22 24 7z"/>
<path d="M1600 227 c0 -21 -4 -23 -32 -19 -32 5 -58 -15 -58 -44 0 -24 32 -45
66 -42 l34 2 0 63 c0 35 -2 63 -5 63 -3 0 -5 -10 -5 -23z m-12 -39 c18 -18 15
-36 -9 -49 -18 -9 -25 -8 -41 9 -18 18 -18 20 -3 36 19 19 37 20 53 4z"/>
<path d="M1970 246 c0 -2 7 -21 16 -42 9 -22 20 -50 25 -63 5 -13 12 -22 14
-19 12 12 53 128 45 128 -5 0 -16 -24 -26 -52 l-17 -53 -18 40 c-10 22 -19 46
-19 53 0 10 -20 19 -20 8z"/>
<path d="M2361 233 c0 -13 -7 -23 -13 -23 -10 0 -10 -2 -1 -8 6 -4 13 -25 16
-47 l4 -40 1 43 c1 26 7 42 15 42 8 0 9 2 1 8 -7 4 -14 16 -17 27 -4 18 -5 18
-6 -2z"/>
<path d="M1010 165 c0 -25 4 -45 9 -45 4 0 6 11 3 25 -3 16 2 33 13 45 17 19
17 20 -3 20 -19 0 -22 -6 -22 -45z"/>
<path d="M1070 195 c-10 -12 -11 -24 -4 -43 8 -23 15 -27 52 -27 l42 -1 0 41
c0 41 0 41 -39 43 -25 2 -43 -3 -51 -13z m68 -7 c18 -18 15 -36 -7 -48 -23
-12 -47 -5 -55 17 -13 33 36 57 62 31z"/>
<path d="M1412 161 c1 -35 2 -39 5 -14 8 65 59 70 66 6 4 -34 4 -33 3 7 -1 45
-1 45 -38 46 l-38 1 2 -46z"/>
<path d="M1641 160 c2 -34 3 -37 6 -15 3 17 12 38 20 47 14 15 13 17 -6 15
-18 -1 -21 -7 -20 -47z"/>
<path d="M1702 198 c-7 -7 -12 -21 -12 -33 0 -40 45 -59 80 -34 12 8 9 9 -11
5 -15 -3 -34 0 -45 9 -17 13 -15 14 29 15 51 0 52 1 37 31 -12 22 -59 26 -78
7z m66 -15 c2 -9 -8 -13 -33 -13 -33 0 -36 2 -25 15 15 18 51 16 58 -2z"/>
<path d="M1810 190 c-23 -43 8 -73 68 -68 19 2 22 8 22 43 0 41 0 41 -39 43
-32 2 -42 -2 -51 -18z m70 -5 c29 -35 -19 -70 -52 -38 -18 19 -18 21 -3 37 20
20 39 21 55 1z"/>
<path d="M2093 165 c0 -27 2 -38 4 -22 2 15 2 37 0 50 -2 12 -4 0 -4 -28z"/>
<path d="M2130 191 c0 -11 9 -23 20 -26 11 -3 20 -10 20 -15 0 -14 -18 -21
-25 -10 -10 16 -25 12 -19 -5 4 -8 17 -15 30 -15 32 0 35 45 3 53 -12 3 -18
10 -15 16 4 6 13 8 21 4 8 -3 15 0 15 6 0 6 -11 11 -25 11 -18 0 -25 -5 -25
-19z"/>
<path d="M2200 165 c0 -25 5 -45 10 -45 6 0 10 20 10 45 0 25 -4 45 -10 45 -5
0 -10 -20 -10 -45z"/>
<path d="M2240 163 c0 -53 18 -57 22 -5 2 29 7 37 23 37 16 0 21 -8 23 -37 4
-42 22 -52 22 -12 0 45 -17 65 -56 62 -33 -2 -34 -3 -34 -45z"/>
<path d="M2400 165 c0 -25 5 -45 10 -45 6 0 10 20 10 45 0 25 -4 45 -10 45 -5
0 -10 -20 -10 -45z"/>
<path d="M2440 163 c0 -53 18 -57 22 -5 2 29 7 37 23 37 16 0 21 -8 23 -37 4
-42 22 -52 22 -12 0 45 -17 65 -56 62 -33 -2 -34 -3 -34 -45z"/>
<path d="M2550 165 c0 -25 3 -45 8 -45 4 0 7 20 7 45 0 25 -3 45 -7 45 -5 0
-8 -20 -8 -45z"/>
<path d="M1190 130 c0 -5 5 -10 10 -10 6 0 10 5 10 10 0 6 -4 10 -10 10 -5 0
-10 -4 -10 -10z"/>
</g>
</svg>
