<?xml version="1.0" standalone="no"?>
<!DOCTYPE svg PUBLIC "-//W3C//DTD SVG 20010904//EN"
 "http://www.w3.org/TR/2001/REC-SVG-20010904/DTD/svg10.dtd">
<svg version="1.0" xmlns="http://www.w3.org/2000/svg"
 width="843.000000pt" height="843.000000pt" viewBox="0 0 843.000000 843.000000"
 preserveAspectRatio="xMidYMid meet">

<g transform="translate(0.000000,843.000000) scale(0.100000,-0.100000)"
fill="#000000" stroke="none">
<path d="M3520 8260 c0 -5 5 -10 10 -10 6 0 10 5 10 10 0 6 -4 10 -10 10 -5 0
-10 -4 -10 -10z"/>
<path d="M3673 8254 c-15 -16 -16 -24 -4 -24 8 0 24 30 19 35 -2 2 -9 -3 -15
-11z"/>
<path d="M3960 8260 c0 -5 6 -10 14 -10 8 0 23 -3 33 -7 17 -6 17 -6 1 10 -18
19 -48 23 -48 7z"/>
<path d="M4040 8260 c0 -5 5 -10 10 -10 6 0 10 5 10 10 0 6 -4 10 -10 10 -5 0
-10 -4 -10 -10z"/>
<path d="M4622 8259 c2 -7 10 -15 17 -17 8 -3 12 1 9 9 -2 7 -10 15 -17 17 -8
3 -12 -1 -9 -9z"/>
<path d="M4713 8254 c-18 -18 -16 -24 6 -24 11 0 18 6 17 15 -3 22 -10 24 -23
9z"/>
<path d="M4120 8235 c0 -8 6 -16 13 -16 6 -1 -1 -5 -18 -9 -29 -7 -29 -8 -4
-9 16 -1 34 8 47 24 l22 25 -30 0 c-20 0 -30 -5 -30 -15z"/>
<path d="M4310 8235 c0 -8 4 -15 10 -15 5 0 7 7 4 15 -4 8 -8 15 -10 15 -2 0
-4 -7 -4 -15z"/>
<path d="M4500 8240 c0 -5 9 -10 20 -10 11 0 20 5 20 10 0 6 -9 10 -20 10 -11
0 -20 -4 -20 -10z"/>
<path d="M4813 8235 c-7 -8 -13 -18 -13 -23 0 -5 -15 -7 -32 -5 -31 4 -32 3
-14 -11 11 -9 26 -16 33 -16 18 0 16 -19 -2 -26 -8 -4 -27 -3 -43 1 -25 7 -25
8 -7 15 15 6 8 9 -30 15 -27 4 -59 9 -70 12 -11 3 -17 2 -12 -3 4 -4 26 -11
50 -15 l42 -7 -50 0 c-27 0 -83 2 -124 5 -56 4 -70 8 -56 15 14 8 15 12 4 19
-19 12 -52 11 -44 0 3 -5 1 -12 -4 -16 -6 -3 -106 -6 -223 -8 -117 -1 -215 -5
-218 -9 -3 -4 -23 -3 -45 3 -21 6 -69 9 -106 7 -37 -2 -65 0 -63 4 3 4 -6 8
-19 8 -24 0 -42 -23 -32 -40 6 -9 -98 -22 -119 -14 -9 3 -16 11 -16 16 0 6 6
8 14 5 7 -3 19 0 25 6 8 8 14 8 23 -1 7 -7 20 -12 30 -12 17 0 17 1 1 18 -14
14 -26 17 -53 11 -19 -4 -44 -7 -55 -6 -62 2 -95 -4 -95 -18 0 -8 7 -15 15
-15 8 0 15 -3 15 -7 0 -5 24 -7 52 -6 53 2 52 2 -10 -7 -35 -5 -69 -14 -76
-19 -7 -6 -16 -8 -19 -5 -3 3 -27 -2 -52 -11 -35 -14 -49 -15 -57 -7 -16 16
-31 15 -25 -2 4 -9 0 -12 -13 -9 -10 3 -21 0 -24 -6 -4 -6 -20 -11 -35 -11
-15 0 -31 -3 -35 -7 -11 -11 -125 -41 -128 -34 -2 4 -11 -2 -21 -12 -18 -18
-18 -19 0 -13 55 16 260 68 338 86 192 43 285 59 424 70 69 6 171 15 226 19
122 11 323 6 553 -14 95 -9 178 -13 184 -9 5 3 7 17 3 31 -4 19 -1 26 15 30
11 3 20 14 20 24 0 22 -10 24 -27 4z m-960 -61 l92 5 -98 -11 c-100 -11 -115
-9 -101 13 6 10 9 10 12 1 3 -9 28 -11 95 -8z m-293 -14 c-20 -13 -40 -13 -40
0 0 6 12 10 28 10 21 0 24 -2 12 -10z"/>
<path d="M4597 8234 c-3 -5 -3 -14 1 -19 8 -12 122 -14 122 -3 0 11 -41 19
-77 15 -18 -3 -34 1 -36 6 -2 7 -6 8 -10 1z"/>
<path d="M3580 8224 c0 -7 27 -34 34 -34 3 0 6 9 6 20 0 13 -7 20 -20 20 -11
0 -20 -3 -20 -6z"/>
<path d="M3815 8220 c-3 -5 1 -10 9 -10 9 0 16 5 16 10 0 6 -4 10 -9 10 -6 0
-13 -4 -16 -10z"/>
<path d="M3964 8219 c-7 -12 52 -18 90 -9 55 12 52 15 -21 15 -35 0 -66 -3
-69 -6z"/>
<path d="M4854 8221 c4 -5 0 -11 -6 -14 -10 -3 -10 -7 0 -20 11 -13 10 -16 -5
-20 -10 -2 -5 -3 10 -1 20 3 26 0 21 -9 -5 -9 -4 -9 7 1 7 6 22 12 34 12 16 0
17 2 5 10 -21 13 -43 12 -34 -2 4 -7 3 -8 -4 -4 -13 8 -5 36 12 36 15 0 -16
20 -32 20 -7 0 -11 -4 -8 -9z"/>
<path d="M4946 8214 c-4 -9 -4 -19 -1 -22 2 -3 7 3 11 12 4 9 4 19 1 22 -2 3
-7 -3 -11 -12z"/>
<path d="M5000 8220 c0 -5 5 -10 10 -10 6 0 10 5 10 10 0 6 -4 10 -10 10 -5 0
-10 -4 -10 -10z"/>
<path d="M3698 8203 c7 -3 16 -2 19 1 4 3 -2 6 -13 5 -11 0 -14 -3 -6 -6z"/>
<path d="M3908 8203 c6 -2 18 -2 25 0 6 3 1 5 -13 5 -14 0 -19 -2 -12 -5z"/>
<path d="M5380 8205 c0 -3 11 -17 25 -30 31 -32 35 -31 35 5 0 27 -3 30 -30
30 -16 0 -30 -2 -30 -5z"/>
<path d="M4573 8183 c9 -2 23 -2 30 0 6 3 -1 5 -18 5 -16 0 -22 -2 -12 -5z"/>
<path d="M5012 8170 c-11 -18 -10 -20 10 -19 13 0 17 3 10 6 -10 4 -10 8 -1
19 6 8 7 14 3 14 -5 0 -15 -9 -22 -20z"/>
<path d="M5050 8181 c0 -6 5 -13 10 -16 6 -3 10 1 10 9 0 9 -4 16 -10 16 -5 0
-10 -4 -10 -9z"/>
<path d="M3640 8160 c0 -5 7 -10 16 -10 8 0 12 5 9 10 -3 6 -10 10 -16 10 -5
0 -9 -4 -9 -10z"/>
<path d="M4940 8160 c0 -5 4 -10 9 -10 6 0 13 5 16 10 3 6 -1 10 -9 10 -9 0
-16 -4 -16 -10z"/>
<path d="M5090 8160 c0 -5 5 -10 11 -10 5 0 7 5 4 10 -3 6 -8 10 -11 10 -2 0
-4 -4 -4 -10z"/>
<path d="M5200 8144 c0 -8 9 -14 20 -14 11 0 20 4 20 9 0 5 -9 11 -20 14 -13
3 -20 0 -20 -9z"/>
<path d="M4810 8138 c0 -4 12 -8 28 -8 15 0 76 -11 136 -25 60 -13 112 -22
116 -20 4 3 27 -2 50 -10 51 -18 64 -19 54 -3 -4 7 -3 8 5 4 6 -4 17 -1 25 7
12 11 7 16 -28 31 -43 19 -206 31 -216 16 -6 -9 -72 -1 -66 9 2 3 -20 6 -50 7
-30 0 -54 -4 -54 -8z m253 -27 c-4 -14 3 -14 28 -1 11 6 19 7 19 2 0 -17 -38
-20 -77 -7 -35 12 -36 13 -13 18 33 6 46 2 43 -12z m141 -9 c11 -6 -21 -21
-44 -21 -10 0 -8 4 5 10 16 7 12 8 -15 5 -19 -3 -29 -2 -21 1 11 5 11 7 0 15
-15 9 58 0 75 -10z"/>
<path d="M3266 8108 c4 -6 0 -14 -7 -19 -9 -6 -2 -7 21 -4 44 8 45 9 10 22
-20 7 -28 8 -24 1z"/>
<path d="M3020 8087 c0 -12 9 -28 20 -35 12 -7 18 -17 15 -22 -11 -17 7 -11
21 8 20 26 17 33 -13 30 -24 -3 -28 0 -26 20 2 12 -2 22 -7 22 -6 0 -10 -10
-10 -23z"/>
<path d="M3214 8095 c-3 -7 -26 -22 -50 -31 -54 -20 -53 -28 2 -12 40 12 74
34 74 50 0 14 -20 9 -26 -7z"/>
<path d="M3360 8101 c0 -5 9 -7 20 -4 11 3 20 7 20 9 0 2 -9 4 -20 4 -11 0
-20 -4 -20 -9z"/>
<path d="M5261 8101 c-14 -9 -10 -12 50 -25 15 -3 29 -13 33 -21 6 -17 2 -17
-104 0 -19 3 15 -10 75 -29 128 -41 118 -39 110 -26 -7 12 2 12 30 0 l20 -9
-20 -1 c-30 -2 40 -26 100 -34 38 -5 46 -4 35 4 -11 8 -12 13 -3 16 13 6 -13
36 -40 47 -14 5 -15 4 -4 -13 6 -11 18 -20 26 -20 12 0 13 -2 2 -12 -11 -10
-14 -10 -18 -1 -3 9 -10 10 -23 3 -12 -6 -27 -6 -42 -1 -21 9 -21 10 -3 11 11
1 -7 11 -40 24 -33 13 -60 27 -60 32 0 5 -4 8 -9 6 -4 -1 -16 6 -26 18 -10 12
-31 20 -51 21 -32 1 -32 2 -9 9 21 7 21 8 5 9 -11 0 -26 -3 -34 -8z"/>
<path d="M5403 8103 c9 -2 23 -2 30 0 6 3 -1 5 -18 5 -16 0 -22 -2 -12 -5z"/>
<path d="M5508 8098 c9 -9 15 -9 24 0 9 9 7 12 -12 12 -19 0 -21 -3 -12 -12z"/>
<path d="M3120 8080 c0 -5 5 -10 10 -10 6 0 10 5 10 10 0 6 -4 10 -10 10 -5 0
-10 -4 -10 -10z"/>
<path d="M5378 8073 c7 -3 16 -2 19 1 4 3 -2 6 -13 5 -11 0 -14 -3 -6 -6z"/>
<path d="M5440 8076 c0 -10 28 -13 41 -5 10 6 7 9 -13 9 -16 0 -28 -2 -28 -4z"/>
<path d="M5410 8051 c0 -9 34 -21 60 -21 9 1 5 7 -10 15 -29 16 -50 19 -50 6z"/>
<path d="M5565 8040 c3 -5 13 -10 21 -10 8 0 12 -4 9 -10 -3 -5 -1 -10 4 -10
6 0 11 -10 11 -21 0 -16 5 -20 19 -16 11 3 22 -1 25 -9 3 -9 -6 -15 -31 -20
l-36 -7 79 -32 c43 -17 106 -44 139 -60 33 -15 68 -28 79 -27 10 0 16 -1 13
-4 -3 -3 50 -34 118 -69 67 -34 144 -77 170 -95 38 -26 49 -30 56 -19 6 9 3
18 -6 25 -18 13 -9 25 12 17 8 -3 18 0 23 7 6 9 13 9 28 1 18 -10 21 -8 19 9
-1 21 -17 29 -17 9 0 -8 -5 -8 -15 1 -10 9 -15 9 -15 1 0 -6 -9 -11 -19 -11
-11 0 -23 -4 -26 -10 -8 -13 -35 -13 -35 1 0 5 3 8 8 5 4 -2 18 2 32 9 24 13
24 14 3 12 -13 -1 -23 -5 -23 -10 0 -4 -5 -5 -10 -2 -6 4 -18 1 -26 -6 -11 -9
-18 -9 -32 3 -9 9 -37 25 -62 36 -39 18 -41 20 -17 19 16 -1 33 -7 39 -14 12
-15 58 -18 58 -4 0 5 -12 9 -27 9 -14 0 -32 8 -40 18 -7 10 -13 14 -13 10 0
-4 -10 0 -22 8 -12 9 -34 16 -48 15 -20 0 -16 -3 15 -13 25 -7 34 -14 25 -17
-8 -3 -31 1 -50 8 -32 14 -33 16 -17 28 16 12 15 15 -16 34 -19 12 -38 21 -43
21 -5 0 6 -10 24 -22 25 -15 30 -23 20 -29 -20 -13 -28 -11 -29 9 0 10 -3 12
-6 5 -2 -7 -10 -13 -15 -13 -6 0 -8 3 -5 7 4 3 0 11 -9 17 -8 6 -16 19 -17 28
-4 25 -27 47 -43 41 -7 -3 -11 -10 -8 -15 6 -10 -12 -28 -28 -28 -17 0 -7 20
10 21 14 0 14 2 -3 9 -14 6 -15 9 -5 9 9 1 23 9 32 20 15 18 14 20 -8 32 -13
7 -27 9 -31 6 -3 -4 1 -7 10 -7 30 0 28 -20 -5 -40 -18 -11 -27 -20 -19 -20 8
0 11 -3 7 -7 -4 -4 -21 0 -39 9 -18 9 -54 26 -82 38 -44 19 -43 21 4 9 7 -2
16 2 19 10 3 10 0 12 -13 7 -12 -4 -16 -2 -12 7 5 13 -5 26 -60 77 -23 20 -59
28 -48 10z m75 -50 c0 -5 -2 -10 -4 -10 -3 0 -8 5 -11 10 -3 6 -1 10 4 10 6 0
11 -4 11 -10z m235 -150 c7 -12 -2 -12 -30 0 -19 8 -19 9 2 9 12 1 25 -3 28
-9z m350 -190 c13 -6 15 -9 5 -9 -8 0 -22 4 -30 9 -18 12 -2 12 25 0z"/>
<path d="M5800 8040 c0 -5 5 -10 10 -10 6 0 10 5 10 10 0 6 -4 10 -10 10 -5 0
-10 -4 -10 -10z"/>
<path d="M2966 8015 c-3 -8 -1 -15 4 -15 13 0 22 18 11 24 -5 3 -11 -1 -15 -9z"/>
<path d="M2882 7998 c2 -26 28 -42 28 -18 0 6 10 15 23 21 19 8 19 9 -7 4 -19
-4 -32 -1 -37 7 -6 8 -8 3 -7 -14z"/>
<path d="M5503 8009 c9 -6 15 -14 12 -20 -3 -5 1 -6 11 -2 16 6 15 7 -2 20
-10 7 -23 13 -28 13 -6 0 -3 -5 7 -11z"/>
<path d="M3001 8001 c-11 -7 -11 -10 0 -15 8 -3 -6 -4 -31 -2 -31 4 -39 2 -25
-4 14 -6 15 -9 5 -9 -34 -2 -90 -23 -85 -32 8 -11 -25 -12 -44 0 -15 10 -80
-5 -96 -21 -7 -7 -7 -9 1 -5 20 11 106 18 99 7 -9 -15 25 -11 73 9 23 9 39 21
35 25 -4 5 3 5 16 1 17 -5 21 -4 16 5 -5 8 -2 10 11 7 11 -3 33 0 49 8 24 11
26 14 10 14 -17 1 -17 3 -5 11 13 9 13 10 0 10 -8 0 -21 -4 -29 -9z"/>
<path d="M2705 7940 c-7 -12 2 -12 30 0 19 8 19 9 -2 9 -12 1 -25 -3 -28 -9z"/>
<path d="M5725 7941 c4 -8 2 -17 -6 -22 -9 -7 -5 -7 14 -3 22 5 26 3 21 -10
-3 -9 -2 -16 2 -16 14 0 40 20 29 21 -5 0 1 5 15 10 23 8 22 8 -6 4 -19 -2
-40 3 -54 12 -14 10 -20 11 -15 4z"/>
<path d="M5960 7940 c0 -5 5 -10 10 -10 6 0 10 5 10 10 0 6 -4 10 -10 10 -5 0
-10 -4 -10 -10z"/>
<path d="M2571 7902 c-1 -7 -5 -11 -10 -8 -5 3 -11 -1 -15 -9 -3 -8 -1 -15 4
-15 6 0 10 -5 10 -11 0 -7 -10 -9 -27 -5 l-28 6 26 -16 c14 -9 30 -24 36 -33
8 -13 5 -16 -15 -18 -14 0 -32 -9 -39 -19 -11 -15 -17 -16 -39 -5 -15 6 -29 9
-32 7 -3 -3 6 -10 19 -16 22 -9 21 -10 -6 -4 -16 4 -41 7 -54 8 -13 1 -26 7
-29 14 -6 19 -21 14 -15 -6 3 -12 -5 -23 -24 -32 -44 -23 -54 -43 -27 -54 12
-4 15 -2 10 9 -6 16 7 18 38 6 17 -7 17 -8 -5 -22 -61 -37 -78 -43 -94 -29 -8
7 -15 28 -15 46 0 19 -4 34 -10 34 -5 0 -10 -18 -10 -40 0 -33 4 -42 22 -49
21 -8 20 -10 -21 -36 -36 -22 -48 -25 -67 -16 -21 9 -25 7 -38 -18 -9 -16 -12
-31 -9 -35 4 -3 1 -6 -6 -6 -6 0 -23 -12 -38 -26 -14 -14 -28 -23 -31 -19 -3
3 0 11 6 17 7 7 12 19 11 28 0 8 -3 10 -5 4 -3 -7 -15 -10 -27 -8 -12 2 -16 2
-9 -2 6 -3 12 -10 12 -15 0 -6 -3 -8 -7 -6 -5 3 -14 -1 -21 -9 -7 -8 -8 -14
-2 -14 17 0 11 -21 -12 -41 -25 -20 -43 -25 -33 -9 10 17 -12 11 -26 -7 -12
-15 -12 -16 4 -10 9 3 17 2 17 -3 0 -6 -4 -10 -9 -10 -5 0 -24 -12 -41 -26
-17 -15 -33 -24 -36 -21 -3 3 3 12 15 19 21 13 29 48 12 48 -5 0 -11 8 -14 18
-3 13 -8 8 -20 -18 -8 -19 -11 -36 -6 -38 20 -8 8 -23 -13 -16 -20 6 -21 5 -9
-9 7 -9 18 -14 25 -10 6 3 2 -3 -9 -14 -15 -15 -25 -18 -38 -11 -9 5 -22 6
-27 3 -6 -4 -7 1 -3 11 4 12 3 15 -5 10 -7 -4 -12 -2 -12 3 0 15 12 14 38 -5
13 -9 26 -14 29 -11 2 3 -5 11 -17 17 l-22 12 21 14 c22 16 28 34 10 34 -5 0
-7 -4 -4 -10 6 -9 1 -11 -32 -14 -7 -1 -22 -12 -34 -25 -16 -17 -19 -25 -9
-31 17 -10 2 -33 -17 -26 -9 4 -11 2 -7 -6 5 -8 1 -9 -12 -4 -10 4 -15 4 -11
0 4 -4 0 -18 -8 -30 -14 -21 -13 -24 5 -34 22 -12 27 -1 8 19 -11 11 -9 11 11
1 13 -6 21 -7 17 -2 -3 6 0 13 6 15 10 4 9 8 -2 17 -13 10 -12 11 5 5 33 -11
37 -11 42 4 4 10 -1 11 -18 6 -13 -4 -21 -4 -17 0 4 4 24 9 45 11 l38 4 -30
-25 c-16 -14 -36 -25 -42 -25 -7 0 -13 -6 -13 -13 0 -19 -92 -92 -111 -89 -10
2 -21 -9 -29 -28 -7 -16 -16 -30 -21 -30 -12 0 -11 17 1 25 6 3 10 12 9 18 0
9 -2 9 -6 0 -2 -7 -9 -13 -14 -13 -6 0 -8 4 -4 9 3 6 -3 9 -13 8 -11 0 -18 -9
-19 -21 -1 -12 1 -15 4 -8 3 6 9 12 14 12 4 0 6 -6 3 -14 -3 -8 0 -17 6 -21 8
-5 8 -11 -1 -21 -6 -7 -16 -11 -22 -7 -5 3 -7 1 -3 -5 3 -6 2 -14 -4 -17 -6
-4 -10 -3 -9 2 3 20 -2 34 -11 28 -6 -4 -7 -13 -1 -23 6 -12 5 -24 -5 -37 -13
-17 -14 -17 -14 -1 0 11 -4 14 -12 10 -7 -4 -35 -7 -62 -7 -48 1 -45 0 31 -13
25 -4 31 -9 26 -22 -3 -9 25 12 64 48 39 36 69 71 67 78 -2 7 0 11 5 8 5 -3
44 27 88 67 311 284 605 474 1043 673 94 43 106 64 25 45 -30 -7 -34 -9 -15
-10 19 -2 11 -9 -40 -33 -36 -17 -74 -32 -85 -32 -11 -1 -19 -6 -18 -13 2 -7
-4 -10 -12 -7 -8 4 -12 10 -9 15 3 5 0 9 -7 9 -31 0 7 15 39 16 52 1 111 24
105 41 -7 18 -23 16 -23 -3 0 -9 -6 -14 -12 -11 -7 2 -12 10 -10 16 1 6 -2 11
-8 11 -14 0 -12 -27 3 -33 7 -3 5 -6 -5 -6 -10 -1 -18 6 -18 14 0 10 -10 15
-29 15 -16 0 -32 6 -34 13 -4 9 -6 9 -6 -1z m47 -43 c-11 -6 -24 -6 -34 -1
-12 7 -8 9 18 10 26 1 30 -1 16 -9z m-169 -125 c2 -1 -13 -10 -33 -18 -41 -17
-69 -12 -64 12 5 28 66 32 97 6z m-289 -164 c0 -5 -9 -14 -21 -20 -19 -11 -20
-10 -9 9 11 22 30 29 30 11z m-140 -90 c0 -5 -2 -10 -4 -10 -3 0 -8 5 -11 10
-3 6 -1 10 4 10 6 0 11 -4 11 -10z m-150 -80 c0 -11 -4 -20 -10 -20 -5 0 -10
9 -10 20 0 11 5 20 10 20 6 0 10 -9 10 -20z m-160 -130 c0 -5 -4 -10 -10 -10
-5 0 -10 5 -10 10 0 6 5 10 10 10 6 0 10 -4 10 -10z m-90 -130 c0 -5 -5 -10
-11 -10 -5 0 -7 5 -4 10 3 6 8 10 11 10 2 0 4 -4 4 -10z"/>
<path d="M2403 7735 c0 -7 6 -11 14 -8 7 3 13 6 13 8 0 2 -6 5 -13 8 -8 3 -14
-1 -14 -8z"/>
<path d="M5900 7895 c0 -8 5 -15 10 -15 6 0 10 7 10 15 0 8 -4 15 -10 15 -5 0
-10 -7 -10 -15z"/>
<path d="M5905 7859 c-11 -16 -1 -19 13 -3 7 8 8 14 3 14 -5 0 -13 -5 -16 -11z"/>
<path d="M5986 7855 c11 -8 15 -15 10 -15 -11 0 24 -40 36 -40 4 0 8 7 8 15 0
8 -4 15 -9 15 -5 0 -12 8 -15 18 -3 10 -16 18 -27 19 -21 2 -21 1 -3 -12z"/>
<path d="M2402 7833 c2 -10 16 -20 35 -24 18 -3 40 -12 48 -19 10 -9 15 -9 15
-1 0 6 -4 11 -8 11 -5 0 -22 11 -38 25 -34 29 -57 32 -52 8z"/>
<path d="M2510 7820 c-12 -8 -11 -10 8 -10 12 0 22 5 22 10 0 13 -11 13 -30 0z"/>
<path d="M2408 7783 c7 -3 16 -2 19 1 4 3 -2 6 -13 5 -11 0 -14 -3 -6 -6z"/>
<path d="M2257 7696 c-4 -10 -1 -13 9 -9 7 3 14 9 14 14 0 14 -17 10 -23 -5z"/>
<path d="M2270 7670 c0 -5 4 -10 9 -10 6 0 13 5 16 10 3 6 -1 10 -9 10 -9 0
-16 -4 -16 -10z"/>
<path d="M6272 7663 c-6 -2 -10 -9 -7 -13 3 -5 12 -7 19 -4 9 3 18 -6 24 -25
10 -28 21 -36 46 -32 4 1 14 -4 22 -10 21 -17 27 -6 13 23 -7 16 -26 30 -50
38 -21 7 -39 17 -39 22 0 9 -8 9 -28 1z m98 -54 c0 -11 -37 -12 -43 -1 -3 4 6
8 19 8 13 1 24 -2 24 -7z"/>
<path d="M2114 7619 c-26 -13 -48 -69 -33 -84 7 -7 8 -5 4 6 -4 10 0 19 10 23
9 3 14 10 11 15 -4 5 6 19 20 30 28 22 23 26 -12 10z"/>
<path d="M2193 7618 c-13 -6 -23 -15 -23 -20 0 -7 31 8 59 29 10 7 -16 1 -36
-9z"/>
<path d="M6250 7621 c0 -12 100 -72 111 -65 15 9 10 27 -5 21 -8 -3 -35 7 -60
23 -25 16 -46 26 -46 21z"/>
<path d="M6471 7615 c-1 -22 -54 -59 -83 -60 -20 0 -25 -18 -7 -24 8 -2 9 1 4
10 -5 8 -4 11 1 6 5 -5 9 -12 9 -17 0 -4 63 -54 140 -110 77 -57 142 -106 145
-109 17 -20 189 -171 196 -171 4 0 -1 9 -10 19 -10 11 -15 25 -10 32 5 9 2 10
-10 6 -11 -5 -15 -3 -10 5 5 8 2 9 -9 5 -26 -10 -20 8 6 20 21 10 21 10 -5 10
-15 0 -25 -3 -22 -8 3 -5 0 -9 -6 -9 -7 0 -10 7 -6 15 3 8 2 14 -2 14 -19 -3
-20 3 -4 19 24 24 63 35 55 16 -3 -8 -14 -14 -24 -14 -10 0 -19 -4 -19 -10 0
-15 49 -12 66 4 10 11 11 15 2 18 -7 3 -11 18 -10 36 1 19 -2 32 -9 32 -6 0
-9 -9 -6 -20 4 -16 0 -20 -19 -20 -13 0 -24 -5 -24 -11 0 -8 -5 -8 -15 1 -17
14 -50 6 -40 -10 4 -6 16 -8 28 -4 21 6 21 5 5 -11 -15 -17 -18 -16 -57 16
-45 38 -51 50 -21 42 10 -3 18 -10 17 -15 -1 -6 4 -13 11 -15 8 -3 12 9 12 42
0 47 -1 47 -28 42 -40 -8 -56 5 -54 48 1 33 -1 36 -21 30 -32 -10 -67 -34 -67
-46 0 -6 -5 -7 -10 -4 -7 4 -7 12 0 25 13 24 13 43 0 35 -6 -4 -8 -11 -5 -16
4 -5 2 -9 -4 -9 -5 0 -13 5 -16 11 -4 6 -14 8 -22 5 -18 -7 -43 10 -39 27 1 7
1 9 -1 5 -7 -12 -31 3 -49 29 -15 23 -15 25 -1 20 9 -3 23 0 31 8 11 11 16 12
19 2 4 -9 6 -9 6 1 1 18 32 15 47 -5 12 -16 13 -15 14 10 0 23 -4 27 -29 27
-23 0 -31 5 -34 23 -4 20 -4 20 -6 2z m69 -170 c7 -8 8 -15 2 -15 -5 0 -15 7
-22 15 -7 8 -8 15 -2 15 5 0 15 -7 22 -15z m97 -12 c0 -10 -4 -21 -10 -24 -14
-10 1 -29 17 -23 8 3 17 1 21 -5 3 -6 1 -11 -5 -11 -6 0 -8 -5 -5 -10 4 -6 12
-7 18 -4 9 5 9 4 0 -6 -9 -10 -18 -8 -42 12 -16 14 -27 29 -24 32 4 3 -1 6
-10 6 -9 0 -17 5 -17 11 0 6 9 8 23 4 21 -6 21 -5 4 9 -19 15 -18 17 24 25 3
0 6 -7 6 -16z"/>
<path d="M6454 7536 c-8 -22 -2 -27 16 -16 12 7 12 12 3 21 -10 10 -14 9 -19
-5z"/>
<path d="M6498 7523 c7 -3 16 -2 19 1 4 3 -2 6 -13 5 -11 0 -14 -3 -6 -6z"/>
<path d="M6531 7494 c0 -11 3 -14 6 -6 3 7 2 16 -1 19 -3 4 -6 -2 -5 -13z"/>
<path d="M1890 7457 c0 -8 87 -3 96 6 3 3 -17 5 -45 4 -28 -1 -51 -5 -51 -10z"/>
<path d="M6675 7460 c-4 -6 12 -10 39 -10 25 0 46 5 46 10 0 6 -18 10 -39 10
-22 0 -43 -4 -46 -10z"/>
<path d="M1612 7414 c-11 -12 -10 -17 2 -30 14 -14 18 -14 31 0 8 8 15 22 15
30 0 20 -31 20 -48 0z"/>
<path d="M6860 7400 c0 -5 5 -10 10 -10 6 0 10 5 10 10 0 6 -4 10 -10 10 -5 0
-10 -4 -10 -10z"/>
<path d="M6772 7335 c-11 -13 -9 -15 10 -15 34 0 55 15 33 24 -23 8 -28 7 -43
-9z"/>
<path d="M7000 7304 c0 -3 6 -12 14 -20 20 -19 26 -18 26 6 0 13 -7 20 -20 20
-11 0 -20 -3 -20 -6z"/>
<path d="M6940 7271 c0 -11 -6 -21 -12 -24 -8 -2 -9 -8 -4 -13 5 -5 11 -4 13
4 3 6 13 12 24 12 23 0 24 6 5 26 -20 19 -26 18 -26 -5z"/>
<path d="M1609 7240 c-8 -6 -7 -9 2 -13 10 -4 11 -8 2 -14 -8 -6 -8 -13 3 -28
14 -19 15 -19 42 10 l27 28 -27 -16 c-31 -19 -38 -21 -38 -8 0 5 9 12 19 16
11 3 18 12 15 19 -5 14 -27 17 -45 6z"/>
<path d="M6850 7211 c8 -5 18 -7 22 -5 4 3 8 1 8 -5 0 -5 -6 -11 -12 -13 -9
-3 -8 -10 5 -22 9 -10 15 -21 12 -26 -4 -7 39 -60 48 -60 1 0 3 11 3 25 1 14
-2 25 -7 25 -5 0 -9 -6 -9 -12 0 -7 -5 -5 -11 5 -6 10 -8 21 -5 24 3 3 0 15
-5 26 -8 15 -8 22 2 28 11 7 11 9 -1 10 -8 0 -26 2 -40 5 -18 3 -21 2 -10 -5z"/>
<path d="M6916 7175 c-3 -8 2 -22 11 -30 14 -15 18 -14 39 6 28 26 28 25 10
32 -7 3 -13 0 -12 -6 0 -7 -3 -13 -9 -14 -5 -1 -9 5 -7 13 4 19 -24 18 -32 -1z"/>
<path d="M7100 7140 c0 -5 14 -10 30 -10 17 0 30 5 30 10 0 6 -13 10 -30 10
-16 0 -30 -4 -30 -10z"/>
<path d="M7010 7136 c0 -2 7 -6 15 -10 8 -3 15 -1 15 4 0 6 -7 10 -15 10 -8 0
-15 -2 -15 -4z"/>
<path d="M6950 7115 c-8 -9 -8 -15 0 -20 6 -3 8 -11 4 -16 -3 -5 39 -58 93
-117 54 -59 134 -151 177 -204 44 -54 84 -94 89 -91 6 3 7 1 3 -6 -4 -7 11
-37 36 -71 79 -109 103 -144 172 -260 75 -126 136 -243 203 -390 23 -52 48
-94 54 -92 7 2 9 -4 6 -12 -4 -9 0 -30 7 -48 12 -27 15 -29 20 -12 3 11 4 8 2
-8 -2 -15 1 -25 5 -22 5 3 9 -1 10 -8 2 -36 9 -63 46 -173 22 -66 55 -181 72
-255 18 -74 39 -160 46 -190 19 -71 45 -226 45 -268 0 -18 4 -31 9 -27 12 7 4
101 -15 183 -8 34 -13 66 -10 71 3 4 -4 27 -15 51 -11 23 -18 44 -15 48 3 3 6
1 6 -5 0 -6 16 -28 36 -49 l36 -39 -7 35 c-4 19 -12 40 -18 45 -7 7 -8 4 -3
-9 5 -16 4 -17 -9 -6 -8 6 -18 28 -21 48 -6 29 -9 33 -14 18 -6 -17 -7 -18
-13 -3 -3 9 -2 19 3 22 6 4 10 14 10 23 0 15 -2 15 -11 2 -9 -12 -10 -12 -5 3
3 10 6 26 7 35 1 9 7 -1 14 -23 13 -39 13 -39 14 -9 1 16 -4 35 -10 41 -6 6
-17 22 -23 35 -7 12 -18 22 -24 20 -7 -1 -12 2 -12 8 0 19 -2 25 -12 38 -7 8
-7 12 1 12 11 0 15 -14 11 -35 -1 -5 4 -5 10 2 10 9 9 16 -2 32 -8 12 -18 18
-22 13 -5 -4 -6 2 -4 13 2 13 11 20 26 19 18 0 20 2 9 15 -6 9 -16 19 -21 23
-6 3 -3 16 5 30 14 21 13 25 -8 47 -18 19 -23 21 -23 8 0 -32 -28 -17 -41 21
-6 20 -16 43 -22 50 -5 7 -7 15 -4 19 4 3 9 -1 13 -10 3 -9 12 -13 20 -10 19
7 18 23 -1 23 -8 0 -15 4 -15 10 0 5 -6 9 -12 7 -7 -1 -12 3 -11 10 1 6 -5 35
-13 64 -12 40 -18 49 -26 38 -7 -10 -8 -8 -4 10 3 14 -1 30 -10 38 -13 14 -13
18 2 34 10 11 14 22 11 25 -4 4 -15 -4 -26 -17 -11 -13 -20 -20 -21 -15 0 5 8
18 17 28 13 14 14 21 5 30 -9 9 -12 8 -12 -4 0 -9 -4 -19 -9 -22 -5 -4 -7 4
-4 16 3 17 2 19 -5 9 -6 -8 -12 -9 -16 -3 -3 6 0 12 6 15 9 3 6 10 -9 22 -32
23 -29 42 7 42 20 0 26 -3 18 -9 -10 -6 -10 -8 2 -8 8 1 24 7 34 15 21 16 14
19 -29 16 -19 -2 -19 -1 -2 12 21 17 22 27 2 27 -8 0 -15 -6 -15 -14 0 -21
-21 -31 -31 -15 -6 10 -9 11 -9 2 0 -7 -4 -13 -10 -13 -12 0 7 46 29 74 15 18
15 18 -6 7 -19 -9 -24 -8 -33 9 -6 12 -7 20 -1 20 5 0 11 -6 14 -12 2 -7 8 -9
13 -5 5 5 1 15 -10 23 -30 21 -39 17 -32 -13 4 -16 8 -37 10 -48 2 -12 1 -13
-1 -2 -2 9 -9 14 -15 11 -7 -5 -8 -2 -3 6 4 7 2 16 -5 20 -9 6 -8 15 5 41 10
19 14 31 10 26 -5 -4 -17 0 -27 10 -22 20 -24 6 -2 -18 9 -10 11 -20 6 -23 -6
-3 -17 9 -26 27 -10 17 -27 50 -40 72 -20 35 -21 43 -9 67 11 22 10 26 -2 24
-8 -1 -18 -5 -21 -9 -13 -13 -26 -7 -20 8 3 8 1 15 -4 15 -18 0 -43 49 -33 63
12 14 26 67 18 67 -2 0 -8 -13 -12 -30 -6 -23 -11 -27 -23 -20 -9 6 -11 13 -5
18 6 4 15 17 22 28 10 18 9 21 -4 20 -9 0 -18 5 -21 13 -3 8 0 11 7 7 6 -4 14
0 17 9 6 13 8 14 15 3 6 -9 9 -6 9 10 0 19 -3 21 -20 12 -10 -6 -25 -9 -32 -8
-19 4 -21 -37 -3 -56 9 -9 13 -20 10 -26 -9 -15 -44 31 -37 49 4 10 1 13 -10
9 -10 -4 -20 3 -29 20 -8 15 -24 36 -36 48 -23 22 -31 40 -13 29 6 -3 10 -1
10 4 0 6 9 11 20 11 13 0 20 -7 20 -20 0 -11 -5 -20 -11 -20 -5 0 -7 -5 -4
-10 4 -6 11 -8 16 -5 5 4 15 3 22 -2 22 -14 38 -12 35 5 -2 9 -13 18 -25 20
-14 2 -20 8 -16 17 3 9 -4 18 -20 24 -14 6 -31 19 -37 31 -10 18 -8 20 17 20
33 0 19 18 -17 22 -28 3 -34 -15 -13 -49 17 -29 17 -29 -9 -30 -13 0 -18 1
-11 4 13 5 6 33 -9 33 -16 0 -35 24 -31 40 4 13 3 13 -6 0 -12 -17 -12 -17
-16 27 -1 19 1 30 7 27 5 -3 4 3 -4 15 -14 22 -28 28 -28 11 0 -5 3 -10 8 -10
4 0 8 -12 9 -27 l1 -28 -19 24 c-10 13 -16 28 -12 34 4 7 0 8 -11 4 -14 -6
-17 -3 -12 9 3 8 6 18 6 21 0 3 7 0 15 -7 11 -9 15 -9 15 -1 0 7 4 10 9 7 5
-4 4 5 -2 19 -7 14 -19 25 -27 25 -13 0 -13 -1 0 -10 12 -8 10 -10 -8 -10 -19
0 -22 4 -17 22 6 16 4 20 -7 16 -8 -4 -19 2 -26 12 -9 15 -7 19 9 23 10 3 19
10 19 15 0 12 -38 4 -46 -10 -4 -6 3 -23 15 -39 32 -43 25 -55 -11 -18 -18 19
-32 36 -33 39 0 3 -18 22 -40 43 -29 27 -35 37 -21 35 10 -2 21 3 24 11 3 10
-2 13 -23 9 -21 -4 -34 2 -61 28 -18 19 -28 34 -21 34 7 0 23 -12 36 -25 13
-14 26 -23 29 -20 3 3 0 11 -6 17 -18 18 -14 27 10 20 14 -3 19 -1 14 6 -3 6
-18 9 -31 6 -31 -6 -33 9 -2 24 21 10 21 11 -6 11 -16 1 -26 5 -23 9 8 14 -32
11 -44 -3z m40 -15 c0 -5 -7 -10 -15 -10 -8 0 -15 5 -15 10 0 6 7 10 15 10 8
0 15 -4 15 -10z m210 -280 c0 -5 -2 -10 -4 -10 -3 0 -8 5 -11 10 -3 6 -1 10 4
10 6 0 11 -4 11 -10z m361 -507 c-12 -20 -14 -14 -5 12 4 9 9 14 11 11 3 -2 0
-13 -6 -23z m384 -753 c3 -5 -1 -10 -9 -10 -9 0 -16 5 -16 10 0 6 4 10 9 10 6
0 13 -4 16 -10z m-25 -41 c0 -10 5 -19 10 -19 6 0 10 -7 10 -15 0 -24 -17 -17
-24 9 -3 13 -9 32 -13 42 -4 12 -3 15 5 10 7 -4 12 -16 12 -27z m60 -213 c0
-28 -13 -10 -17 22 -3 21 -1 24 7 12 5 -8 10 -24 10 -34z"/>
<path d="M7160 7085 c0 -4 8 -14 17 -23 16 -16 16 -16 10 1 -3 9 -2 17 3 17 5
0 11 -9 13 -20 4 -17 4 -16 3 2 -1 16 -8 24 -23 26 -13 2 -23 1 -23 -3z"/>
<path d="M1456 7044 c-5 -14 -4 -15 9 -4 17 14 19 20 6 20 -5 0 -12 -7 -15
-16z"/>
<path d="M7065 7040 c-3 -5 -2 -10 4 -10 5 0 13 5 16 10 3 6 2 10 -4 10 -5 0
-13 -4 -16 -10z"/>
<path d="M7105 7020 c-3 -5 -1 -10 4 -10 6 0 11 5 11 10 0 6 -2 10 -4 10 -3 0
-8 -4 -11 -10z"/>
<path d="M1375 6979 c-17 -8 -16 -9 8 -6 15 3 27 0 27 -4 0 -5 -5 -9 -11 -9
-6 0 -8 -9 -4 -21 8 -25 -14 -45 -28 -26 -4 7 -5 0 -1 -15 4 -20 -1 -34 -22
-57 -23 -26 -29 -29 -36 -16 -6 9 -5 22 2 33 9 14 10 13 5 -8 -6 -24 -6 -24
18 5 31 37 26 51 -17 50 -25 0 -42 -9 -65 -32 -17 -18 -31 -36 -31 -39 0 -4
16 -4 35 -1 20 3 35 2 35 -4 0 -6 -5 -7 -10 -4 -12 7 -33 -43 -26 -61 3 -8 -3
-12 -15 -11 -11 1 -18 6 -15 12 18 43 19 48 9 42 -6 -4 -14 -1 -17 5 -3 7 -3
0 0 -17 5 -24 3 -27 -6 -15 -9 12 -10 11 -5 -7 5 -20 2 -23 -22 -24 -23 -1
-24 -2 -8 -7 11 -4 21 -14 21 -22 1 -8 5 -24 10 -35 7 -20 7 -20 -14 -1 -12
10 -28 16 -36 13 -22 -9 -28 4 -8 19 14 11 14 13 2 14 -25 0 -37 -13 -43 -50
-5 -25 -4 -31 3 -20 5 8 10 11 10 6 0 -6 5 -5 12 2 15 15 58 16 58 2 0 -11
-50 -90 -56 -90 -2 0 -4 12 -4 26 0 14 4 23 9 19 5 -3 13 0 17 6 12 20 -19 29
-33 10 -13 -19 -14 -61 -1 -61 4 0 8 -5 8 -10 0 -7 -7 -7 -20 0 -11 6 -18 15
-15 20 7 11 -5 40 -16 40 -6 0 -6 -7 0 -18 7 -12 3 -24 -13 -45 l-22 -28 -25
22 c-16 14 -20 23 -11 26 19 7 14 23 -8 23 -13 0 -20 -7 -20 -18 0 -10 9 -24
20 -32 11 -8 20 -20 20 -27 0 -7 7 -10 15 -7 8 4 15 1 15 -4 0 -6 -8 -13 -17
-15 -16 -4 -16 -5 -2 -6 23 -1 32 -30 15 -47 -19 -18 -32 -18 -40 1 -7 19 -26
20 -26 1 0 -8 11 -17 25 -20 14 -4 23 -11 20 -16 -3 -5 -13 -7 -23 -4 -12 4
-14 3 -4 -3 10 -8 11 -15 1 -37 -9 -19 -15 -23 -21 -14 -6 10 -8 10 -9 1 -4
-36 -19 -73 -30 -73 -5 0 -9 -9 -9 -19 0 -11 -5 -23 -11 -27 -14 -8 -2 32 17
61 8 11 14 30 14 43 0 12 7 34 16 48 13 19 14 28 5 37 -8 8 -11 8 -11 -3 0 -7
-14 -35 -31 -62 -17 -27 -29 -51 -26 -54 3 -3 8 4 12 15 3 12 11 21 16 21 12
0 12 -17 0 -25 -5 -3 -12 -18 -16 -34 -5 -22 -11 -29 -26 -26 -10 2 -19 -1
-19 -7 0 -5 7 -8 14 -5 9 4 17 -2 21 -14 9 -26 -3 -38 -16 -19 -8 11 -9 7 -7
-17 3 -18 1 -30 -4 -27 -4 3 -8 -5 -8 -18 0 -18 -2 -20 -10 -8 -8 12 -10 12
-10 1 0 -8 -3 -11 -6 -8 -4 4 1 18 10 31 19 29 20 36 6 36 -5 0 -10 -7 -10
-16 0 -10 -6 -14 -15 -10 -8 3 -15 1 -15 -5 0 -6 -4 -8 -8 -5 -4 2 -8 -4 -8
-15 0 -19 1 -19 13 -3 10 13 13 14 12 3 -1 -21 -14 -51 -22 -50 -22 3 -27 -2
-33 -36 -5 -25 -3 -38 5 -41 14 -5 15 -52 1 -52 -5 0 -10 -6 -10 -14 0 -31
-20 -67 -32 -60 -20 13 -46 12 -41 -1 2 -7 -3 -15 -12 -19 -13 -5 -15 -1 -9
17 9 29 12 44 7 35 -3 -5 -13 -3 -24 2 -16 9 -19 7 -19 -10 0 -11 4 -20 9 -20
5 0 12 -11 15 -25 5 -19 12 -24 29 -21 13 2 21 10 21 20 -1 9 3 16 8 16 6 0 8
-13 4 -31 -3 -17 -6 -38 -6 -45 0 -8 -5 -14 -11 -14 -5 0 -7 5 -4 10 3 6 2 10
-4 10 -6 0 -7 8 -4 18 6 15 5 15 -10 4 -15 -13 -15 -16 -1 -29 20 -20 13 -38
-15 -39 -12 -1 -25 -5 -29 -9 -4 -5 1 -5 11 -2 15 6 17 3 12 -16 -5 -17 -4
-18 4 -7 5 8 13 11 17 7 4 -3 1 -13 -6 -22 -7 -8 -9 -15 -5 -15 5 0 1 -8 -8
-18 -10 -10 -14 -21 -11 -24 3 -4 -1 -17 -9 -30 -7 -12 -20 -43 -26 -68 -7
-25 -18 -56 -24 -70 -6 -14 -12 -29 -13 -35 -8 -50 -19 -75 -33 -76 -10 0 -11
-2 -3 -6 6 -2 12 -14 11 -26 0 -21 -1 -21 -9 -2 -8 16 -9 12 -6 -15 1 -19 -3
-49 -11 -67 -7 -18 -13 -45 -14 -60 -1 -21 -4 -16 -10 16 -14 72 -26 68 -26
-10 0 -63 2 -70 14 -54 15 22 18 12 3 -14 -5 -11 -6 -30 0 -47 6 -21 9 -23 9
-9 1 11 15 74 32 140 18 66 33 127 34 135 1 8 6 23 10 32 4 10 8 29 9 43 0 14
3 25 6 25 3 0 11 21 18 46 7 25 35 103 64 173 28 69 50 134 50 144 0 9 3 17 9
17 5 0 9 5 9 10 0 6 20 53 45 106 31 67 42 101 36 113 -5 9 -6 23 -2 31 8 20
31 24 31 4 0 -8 -4 -13 -8 -10 -4 2 -9 -4 -9 -15 -1 -10 0 -19 2 -19 8 0 55
100 48 100 -5 0 -3 4 3 8 7 4 26 34 44 67 56 105 304 467 333 486 5 4 5 15 -2
28 -7 13 -8 21 -2 21 6 0 8 6 5 14 -4 10 0 14 12 12 10 -2 20 -9 22 -16 3 -7
0 -10 -6 -6 -5 3 -13 -1 -16 -10 -14 -37 6 -20 80 68 43 51 82 96 86 99 10 7
0 39 -13 39 -4 0 -6 -8 -3 -17 5 -17 5 -17 -6 0 -12 19 -25 20 -55 6z m55 -33
c0 -3 -4 -8 -10 -11 -5 -3 -10 -1 -10 4 0 6 5 11 10 11 6 0 10 -2 10 -4z
m-130 -57 c7 12 40 5 40 -9 0 -13 -54 -4 -56 9 -2 8 -1 8 3 0 4 -8 7 -8 13 0z
m-85 -160 c-5 -15 -4 -19 4 -15 6 4 11 15 11 24 0 12 3 13 11 5 8 -8 6 -17 -9
-33 -16 -18 -20 -19 -25 -6 -4 9 -4 23 -1 31 9 23 16 18 9 -6z m-129 -174
c-15 -38 -16 -47 -1 -22 9 16 19 27 21 24 6 -5 -14 -43 -33 -64 -9 -10 -12
-10 -15 0 -7 18 11 77 23 77 6 0 8 -7 5 -15z m-271 -504 c-3 -12 -11 -21 -16
-21 -10 0 -12 43 -2 53 12 13 25 -10 18 -32z m-112 -276 c-3 -9 -8 -14 -10
-11 -3 3 -2 9 2 15 9 16 15 13 8 -4z"/>
<path d="M7098 6971 c5 -14 3 -14 -11 -2 -9 7 -17 9 -17 3 0 -5 6 -15 14 -21
11 -9 15 -9 20 1 5 10 7 10 12 1 8 -17 31 -16 37 1 4 10 0 12 -14 9 -10 -3
-19 -1 -19 5 0 6 8 12 18 15 9 2 3 4 -15 4 -24 0 -30 -3 -25 -16z"/>
<path d="M7240 6980 c0 -5 5 -10 10 -10 6 0 10 5 10 10 0 6 -4 10 -10 10 -5 0
-10 -4 -10 -10z"/>
<path d="M7340 6980 c0 -5 5 -10 10 -10 6 0 10 5 10 10 0 6 -4 10 -10 10 -5 0
-10 -4 -10 -10z"/>
<path d="M7300 6840 c0 -5 5 -10 10 -10 6 0 10 5 10 10 0 6 -4 10 -10 10 -5 0
-10 -4 -10 -10z"/>
<path d="M7298 6758 c-6 -18 3 -58 14 -58 5 0 8 6 6 13 -1 6 3 22 10 35 11 19
10 22 -7 22 -11 0 -21 -5 -23 -12z"/>
<path d="M980 6650 c0 -11 5 -20 10 -20 6 0 10 9 10 20 0 11 -4 20 -10 20 -5
0 -10 -9 -10 -20z"/>
<path d="M1051 6654 c0 -11 3 -14 6 -6 3 7 2 16 -1 19 -3 4 -6 -2 -5 -13z"/>
<path d="M1160 6660 c0 -5 5 -10 10 -10 6 0 10 5 10 10 0 6 -4 10 -10 10 -5 0
-10 -4 -10 -10z"/>
<path d="M1050 6601 c0 -5 -3 -18 -7 -28 -6 -17 -6 -17 10 -1 19 18 22 38 7
38 -5 0 -10 -4 -10 -9z"/>
<path d="M7480 6574 c0 -8 5 -12 10 -9 6 3 10 10 10 16 0 5 -4 9 -10 9 -5 0
-10 -7 -10 -16z"/>
<path d="M7400 6562 c0 -5 7 -13 16 -16 10 -4 14 -1 12 6 -5 15 -28 23 -28 10z"/>
<path d="M1005 6480 c3 -5 13 -10 21 -10 8 0 14 5 14 10 0 6 -9 10 -21 10 -11
0 -17 -4 -14 -10z"/>
<path d="M910 6416 c-6 -9 -10 -21 -8 -28 3 -8 9 -4 17 10 15 28 9 39 -9 18z"/>
<path d="M7500 6411 c0 -5 5 -13 10 -16 6 -3 10 -2 10 4 0 5 -4 13 -10 16 -5
3 -10 2 -10 -4z"/>
<path d="M7586 6315 c-6 -16 12 -75 22 -75 4 0 14 6 23 13 13 10 14 17 4 41
-8 20 -15 25 -20 16 -4 -7 -2 -16 6 -21 12 -8 12 -11 -1 -19 -11 -7 -17 -4
-22 10 -4 11 -5 27 -2 35 4 8 4 15 1 15 -3 0 -7 -7 -11 -15z"/>
<path d="M860 6300 c0 -5 4 -10 9 -10 6 0 13 5 16 10 3 6 -1 10 -9 10 -9 0
-16 -4 -16 -10z"/>
<path d="M804 6246 c0 -11 6 -27 14 -35 11 -11 15 -11 27 5 8 11 14 24 14 29
0 6 -6 2 -13 -7 -18 -24 -30 -23 -23 1 3 11 0 22 -7 24 -7 3 -12 -4 -12 -17z"/>
<path d="M4725 6177 c-66 -40 -156 -95 -199 -122 l-79 -48 6 -154 5 -153 -86
0 c-48 0 -150 -3 -228 -7 l-140 -6 -42 -121 c-22 -67 -86 -251 -142 -411 -55
-159 -114 -337 -131 -395 -17 -58 -34 -111 -39 -119 -5 -9 -19 21 -40 85 -37
111 -172 471 -287 762 l-75 192 -207 -6 c-113 -4 -207 -7 -208 -8 -1 -1 22
-57 51 -126 30 -69 97 -231 151 -360 53 -129 105 -253 115 -275 40 -91 143
-334 231 -548 l94 -229 65 6 c36 3 117 6 180 6 l116 0 18 48 c48 124 200 532
360 967 37 99 71 190 76 203 9 20 16 22 90 22 44 0 80 -1 80 -2 1 -2 5 -190
10 -418 13 -574 23 -642 108 -729 76 -78 135 -96 312 -96 125 0 156 3 223 24
44 14 81 31 84 38 3 7 -2 68 -12 136 -23 172 -23 170 -43 162 -120 -47 -202
-41 -237 17 -17 29 -19 63 -26 353 -4 176 -8 366 -8 423 l-1 102 141 0 142 0
-7 61 c-3 34 -6 106 -6 160 l0 99 -140 0 -140 0 -1 213 c-1 116 -4 238 -8 270
l-6 58 -120 -74z"/>
<path d="M7657 6220 c3 -11 9 -20 14 -20 11 0 11 3 3 24 -9 23 -23 20 -17 -4z"/>
<path d="M7747 6174 c3 -7 11 -10 19 -7 20 8 17 22 -5 20 -10 0 -17 -7 -14
-13z"/>
<path d="M7722 6151 c7 -11 16 -17 20 -15 5 3 2 12 -6 20 -21 20 -28 17 -14
-5z"/>
<path d="M7820 6140 c0 -5 5 -10 10 -10 6 0 10 5 10 10 0 6 -4 10 -10 10 -5 0
-10 -4 -10 -10z"/>
<path d="M7740 6095 c-7 -9 -10 -18 -7 -21 3 -3 10 4 17 15 13 25 8 27 -10 6z"/>
<path d="M7817 6010 c-9 -11 -13 -20 -7 -20 5 0 14 9 20 20 6 11 9 20 8 20 -2
0 -11 -9 -21 -20z"/>
<path d="M721 6005 c0 -5 3 -17 7 -25 6 -13 11 -11 30 7 23 21 23 22 3 20 -12
-1 -21 -6 -21 -12 0 -5 -5 -3 -10 5 -5 8 -9 11 -9 5z"/>
<path d="M7741 5983 c13 -17 26 -26 28 -21 1 5 12 1 23 -9 21 -18 21 -18 9 5
-8 14 -18 21 -27 18 -8 -3 -14 -1 -14 4 0 5 -10 15 -22 21 -21 11 -21 11 3
-18z"/>
<path d="M7826 5973 c-6 -14 -5 -15 5 -6 7 7 10 15 7 18 -3 3 -9 -2 -12 -12z"/>
<path d="M707 5963 c-4 -3 -7 -13 -7 -22 1 -13 3 -13 11 2 11 19 8 33 -4 20z"/>
<path d="M751 5957 c-1 -10 -5 -15 -11 -12 -6 4 -7 -1 -3 -11 6 -15 7 -15 15
0 5 9 7 22 4 29 -2 7 -5 4 -5 -6z"/>
<path d="M7820 5899 c0 -5 5 -7 10 -4 6 3 10 8 10 11 0 2 -4 4 -10 4 -5 0 -10
-5 -10 -11z"/>
<path d="M3380 5890 c-25 -8 -25 -8 8 -15 17 -4 32 -11 32 -16 0 -12 -7 -11
-31 1 -23 13 -24 8 -3 -31 13 -25 18 -28 30 -18 8 7 13 18 10 25 -3 7 1 15 9
18 8 3 16 0 18 -7 2 -7 8 -8 13 -4 10 9 -16 28 -28 21 -4 -3 -8 0 -8 5 0 7 54
11 158 12 86 0 185 2 220 3 34 1 62 -2 62 -7 0 -5 -7 -7 -15 -4 -8 4 -17 2
-20 -3 -3 -5 -19 -8 -35 -6 -26 3 -28 1 -19 -21 6 -17 5 -25 -4 -29 -17 -6
-16 -72 0 -99 12 -19 12 -19 13 3 0 13 -4 20 -10 17 -5 -3 -10 1 -10 9 0 14 3
14 20 4 11 -7 18 -19 15 -26 -3 -8 -8 -26 -12 -40 -3 -15 -13 -37 -21 -49 -8
-13 -12 -30 -8 -38 3 -8 1 -15 -4 -15 -5 0 -11 8 -14 18 -3 9 -4 0 -1 -21 2
-20 0 -35 -5 -32 -4 3 -8 -5 -8 -18 0 -29 -35 -127 -45 -127 -4 0 -4 12 -1 27
7 27 7 27 -10 10 -17 -17 -17 -19 -2 -36 12 -13 14 -21 7 -26 -6 -3 -11 -21
-11 -38 0 -21 -3 -28 -9 -19 -7 11 -9 11 -14 -1 -3 -8 -4 -23 -3 -34 2 -10 1
-12 -1 -5 -3 6 -9 12 -14 12 -11 0 -11 -3 1 -34 6 -17 6 -26 0 -26 -6 0 -11 8
-12 18 -3 33 -5 57 -7 75 0 11 -6 15 -13 11 -8 -5 -9 0 -5 17 4 13 7 29 7 34
0 6 5 3 10 -5 8 -13 10 -12 10 4 0 12 -5 16 -16 12 -12 -5 -14 -1 -8 17 3 12
11 28 16 35 7 8 6 12 -3 12 -11 0 -11 2 1 10 8 5 11 13 6 17 -13 14 -36 -28
-29 -55 4 -17 2 -23 -6 -18 -6 4 -11 15 -11 24 0 15 -2 15 -10 2 -8 -13 -10
-12 -10 4 0 22 -40 109 -46 103 -3 -2 15 -55 40 -118 24 -63 54 -146 67 -186
l23 -72 31 102 c18 56 49 147 69 202 21 55 49 136 63 179 14 44 28 86 31 94 4
11 1 13 -8 7 -8 -5 -11 -3 -8 6 3 8 10 13 15 12 5 -1 21 27 35 63 l25 64 -241
-1 c-132 -1 -252 -5 -266 -9z m440 -56 c0 -14 -12 -19 -23 -8 -9 9 4 35 14 28
5 -3 9 -12 9 -20z m26 -1 c-10 -10 -19 5 -10 18 6 11 8 11 12 0 2 -7 1 -15 -2
-18z m-435 3 c5 3 9 1 9 -5 0 -5 -4 -13 -10 -16 -5 -3 -10 -4 -10 -1 0 2 -2
10 -3 18 -2 7 -2 10 0 5 3 -4 9 -5 14 -1z m389 -52 c0 -8 -5 -14 -11 -14 -5 0
-7 5 -4 10 3 6 1 10 -5 10 -6 0 -8 5 -5 10 8 13 25 3 25 -16z m30 16 c0 -5 -4
-10 -10 -10 -5 0 -10 5 -10 10 0 6 5 10 10 10 6 0 10 -4 10 -10z m-240 -421
c0 -6 -4 -7 -10 -4 -5 3 -10 11 -10 16 0 6 5 7 10 4 6 -3 10 -11 10 -16z"/>
<path d="M7800 5869 c0 -5 5 -7 10 -4 6 3 10 8 10 11 0 2 -4 4 -10 4 -5 0 -10
-5 -10 -11z"/>
<path d="M7826 5863 c-7 -17 24 -103 37 -103 4 0 7 4 7 9 0 5 3 16 6 25 4 11
0 16 -14 16 -23 0 -36 28 -26 54 3 9 4 16 1 16 -3 0 -8 -7 -11 -17z"/>
<path d="M646 5857 c3 -10 9 -15 12 -12 3 3 0 11 -7 18 -10 9 -11 8 -5 -6z"/>
<path d="M3484 5825 c-3 -8 -3 -18 0 -24 4 -5 -3 -16 -15 -25 -12 -8 -18 -19
-15 -24 3 -6 3 -18 -1 -28 -6 -16 -7 -16 -14 2 -4 10 -5 29 -2 40 2 12 0 25
-6 28 -6 4 -11 2 -11 -4 0 -6 -4 -8 -10 -5 -8 5 0 -19 33 -97 7 -16 15 -28 19
-28 5 0 8 -10 8 -22 1 -13 8 -36 16 -53 8 -16 12 -22 9 -12 -18 64 -17 67 6
76 13 5 20 10 15 10 -5 1 -3 8 4 16 10 12 10 19 2 27 -9 9 -12 7 -12 -7 0 -17
-2 -18 -11 -5 -9 12 -10 11 -6 -6 4 -17 1 -20 -14 -17 -11 3 -19 14 -19 27 0
17 2 18 10 6 7 -11 8 -6 4 16 -5 25 -1 37 17 55 14 14 18 24 11 27 -9 3 -9 9
-2 23 8 13 7 19 0 19 -6 0 -13 -7 -16 -15z"/>
<path d="M3440 5816 c0 -8 7 -16 15 -20 13 -4 14 -2 5 14 -13 23 -20 26 -20 6z"/>
<path d="M3680 5780 c0 -5 5 -10 10 -10 6 0 10 5 10 10 0 6 -4 10 -10 10 -5 0
-10 -4 -10 -10z"/>
<path d="M618 5725 c-6 -31 2 -37 26 -20 17 13 17 15 3 29 -21 21 -24 20 -29
-9z"/>
<path d="M7874 5726 c1 -23 36 -31 36 -9 0 12 -3 13 -14 4 -12 -10 -15 -8 -19
6 -3 16 -4 16 -3 -1z"/>
<path d="M3760 5698 c0 -9 5 -20 10 -23 13 -8 13 5 0 25 -8 13 -10 13 -10 -2z"/>
<path d="M7980 5701 c0 -5 6 -12 13 -15 10 -5 10 -7 0 -12 -20 -9 -15 -24 7
-24 20 0 25 15 14 44 -7 17 -34 22 -34 7z"/>
<path d="M8020 5700 c0 -5 5 -10 10 -10 6 0 10 5 10 10 0 6 -4 10 -10 10 -5 0
-10 -4 -10 -10z"/>
<path d="M570 5691 c0 -6 5 -13 10 -16 6 -3 10 1 10 9 0 9 -4 16 -10 16 -5 0
-10 -4 -10 -9z"/>
<path d="M620 5660 c0 -5 5 -10 10 -10 6 0 10 5 10 10 0 6 -4 10 -10 10 -5 0
-10 -4 -10 -10z"/>
<path d="M3705 5650 c-4 -12 -2 -27 3 -32 7 -7 7 -19 1 -37 -6 -14 -11 -28
-11 -31 0 -3 -4 -4 -8 -3 -4 1 -7 -5 -6 -15 1 -12 -5 -16 -21 -14 -15 2 -23
-4 -28 -18 -4 -12 -4 -24 -1 -27 3 -4 6 1 6 10 0 24 18 21 41 -5 14 -18 18
-20 19 -7 0 9 7 22 15 29 8 7 15 18 15 24 0 6 -7 2 -15 -8 -15 -19 -15 -19
-15 1 0 11 6 23 14 26 10 4 13 20 10 63 -5 65 -9 75 -19 44z"/>
<path d="M3752 5650 c0 -14 2 -19 5 -12 2 6 2 18 0 25 -3 6 -5 1 -5 -13z"/>
<path d="M570 5649 c0 -5 5 -7 10 -4 6 3 10 8 10 11 0 2 -4 4 -10 4 -5 0 -10
-5 -10 -11z"/>
<path d="M7915 5641 c-5 -18 -9 -20 -21 -10 -13 11 -13 9 -3 -15 11 -24 14
-25 22 -9 6 10 14 20 18 23 4 3 4 12 0 19 -7 10 -10 9 -16 -8z"/>
<path d="M605 5630 c3 -5 -1 -20 -9 -32 -8 -13 -18 -40 -21 -61 -4 -21 -14
-45 -22 -52 -9 -9 -10 -15 -3 -15 6 0 8 -5 4 -12 -4 -6 -3 -8 4 -4 6 3 14 21
18 38 3 18 10 39 14 48 9 18 30 84 30 93 0 4 -5 7 -11 7 -5 0 -7 -4 -4 -10z"/>
<path d="M3490 5630 c0 -7 14 -42 32 -79 21 -44 33 -60 36 -48 2 10 -4 27 -13
37 -9 10 -14 24 -10 29 3 6 -1 14 -9 17 -9 3 -16 14 -16 24 0 11 -4 22 -10 25
-5 3 -10 1 -10 -5z"/>
<path d="M3522 5620 c0 -14 2 -19 5 -12 2 6 2 18 0 25 -3 6 -5 1 -5 -13z"/>
<path d="M3553 5623 c-3 -10 -8 -22 -11 -27 -3 -5 0 -6 5 -3 11 7 25 47 17 47
-3 0 -7 -8 -11 -17z"/>
<path d="M565 5620 c-3 -5 -1 -10 4 -10 6 0 11 5 11 10 0 6 -2 10 -4 10 -3 0
-8 -4 -11 -10z"/>
<path d="M500 5586 c0 -14 5 -28 10 -31 6 -4 10 7 10 24 0 17 -4 31 -10 31 -5
0 -10 -11 -10 -24z"/>
<path d="M3691 5603 c-1 -6 -4 -20 -7 -30 -5 -17 -5 -17 6 0 6 10 9 23 6 30
-3 9 -5 9 -5 0z"/>
<path d="M7955 5600 c-3 -5 -1 -10 5 -10 6 0 8 -5 4 -12 -4 -7 -3 -8 4 -4 14
9 16 36 3 36 -6 0 -13 -4 -16 -10z"/>
<path d="M8080 5560 c0 -5 5 -10 10 -10 6 0 10 5 10 10 0 6 -4 10 -10 10 -5 0
-10 -4 -10 -10z"/>
<path d="M555 5552 c-13 -9 -17 -32 -6 -32 9 0 24 30 18 36 -1 2 -7 0 -12 -4z"/>
<path d="M3620 5534 c0 -8 5 -12 10 -9 6 3 10 10 10 16 0 5 -4 9 -10 9 -5 0
-10 -7 -10 -16z"/>
<path d="M3572 5490 c-7 -11 -8 -20 -3 -20 9 0 24 30 18 36 -1 2 -8 -6 -15
-16z"/>
<path d="M3635 5450 c-8 -13 5 -13 25 0 13 8 13 10 -2 10 -9 0 -20 -4 -23 -10z"/>
<path d="M480 5434 c0 -8 5 -12 10 -9 6 3 10 10 10 16 0 5 -4 9 -10 9 -5 0
-10 -7 -10 -16z"/>
<path d="M7977 5425 c3 -11 5 -29 4 -40 0 -15 2 -17 9 -6 6 11 9 7 13 -15 l4
-29 2 32 c0 17 -3 34 -8 37 -5 3 -7 16 -5 29 4 20 4 20 -4 2 -7 -16 -10 -17
-14 -5 -3 8 -3 6 -1 -5z"/>
<path d="M500 5410 c0 -6 -4 -8 -10 -5 -13 8 -13 -5 0 -25 8 -13 10 -13 10 2
0 9 5 18 12 20 9 3 9 6 0 12 -7 4 -12 2 -12 -4z"/>
<path d="M3630 5409 c0 -5 5 -7 10 -4 6 3 10 8 10 11 0 2 -4 4 -10 4 -5 0 -10
-5 -10 -11z"/>
<path d="M3640 5370 c0 -12 -4 -18 -10 -15 -6 4 -10 -6 -10 -21 0 -31 10 -24
28 18 7 17 8 30 2 33 -6 4 -10 -3 -10 -15z"/>
<path d="M512 5368 c-14 -14 -16 -38 -3 -38 5 0 11 -10 14 -22 2 -13 4 -2 3
24 -1 27 -1 48 -1 48 -1 0 -6 -5 -13 -12z"/>
<path d="M8038 5285 c2 -14 6 -25 8 -25 2 0 4 11 4 25 0 14 -4 25 -9 25 -4 0
-6 -11 -3 -25z"/>
<path d="M8066 5255 c-3 -8 -12 -15 -20 -15 -18 0 -27 -36 -12 -48 26 -22 57
-24 71 -6 10 15 10 20 -1 31 -7 7 -18 13 -24 13 -7 0 -9 8 -5 20 7 23 0 27 -9
5z m8 -41 c11 -28 6 -34 -14 -22 -11 7 -20 18 -20 25 0 18 27 16 34 -3z"/>
<path d="M8121 5094 c0 -11 3 -14 6 -6 3 7 2 16 -1 19 -3 4 -6 -2 -5 -13z"/>
<path d="M486 5053 c4 -19 3 -24 -4 -14 -7 10 -11 10 -17 1 -4 -6 -2 -17 4
-23 16 -16 14 -37 -4 -31 -8 4 -15 2 -15 -4 0 -6 5 -12 11 -14 13 -4 2 -118
-12 -118 -5 0 -12 19 -16 43 l-7 42 -7 -35 c-13 -68 -19 -126 -9 -105 5 11 9
36 10 55 1 19 3 31 5 25 1 -5 8 -29 15 -52 10 -33 10 -46 1 -57 -6 -7 -11 -31
-9 -52 4 -79 -1 -121 -17 -121 -8 0 -15 4 -15 9 0 4 -4 8 -10 8 -5 0 -10 -7
-10 -16 0 -8 4 -13 9 -9 14 8 41 -23 41 -46 0 -11 -4 -17 -10 -14 -6 4 -7 -6
-4 -25 7 -31 -3 -39 -24 -18 -9 9 -12 9 -12 0 0 -6 9 -16 20 -22 15 -8 19 -18
15 -38 -5 -23 -4 -24 5 -7 8 15 9 6 5 -35 -4 -30 -10 -59 -14 -63 -5 -5 -2
-29 5 -54 16 -54 18 -93 4 -93 -5 0 -10 -5 -10 -11 0 -5 4 -7 10 -4 6 4 9 -11
8 -37 0 -24 4 -72 10 -106 6 -35 9 -78 6 -95 -3 -25 -2 -28 5 -12 6 14 9 -9 8
-72 0 -51 -2 -93 -4 -93 -2 0 -8 10 -13 23 -9 20 -9 19 -7 -8 1 -20 9 -33 25
-40 22 -10 24 -16 27 -65 0 -14 4 -34 8 -45 13 -39 17 -85 8 -85 -5 0 -9 14
-9 30 1 17 -2 33 -6 37 -10 11 1 -68 19 -122 14 -45 15 -46 11 -12 -3 22 -1
35 5 32 5 -4 9 -23 9 -44 0 -20 6 -43 13 -50 7 -8 7 -11 1 -8 -12 7 -3 -23 29
-95 10 -21 16 -41 15 -45 0 -5 4 -21 11 -38 7 -16 14 -70 15 -120 2 -54 -1
-80 -5 -65 l-8 25 2 -24 c2 -23 14 -30 55 -33 15 -1 55 -85 67 -137 4 -17 10
-31 14 -31 11 0 33 -78 26 -89 -3 -5 2 -16 11 -25 8 -9 12 -21 8 -28 -5 -8 0
-7 11 2 17 14 18 13 11 -15 -4 -16 -12 -33 -18 -36 -7 -4 -6 -9 1 -13 6 -4 11
-2 11 5 0 7 6 4 14 -7 8 -10 20 -19 26 -19 7 0 21 -22 31 -50 18 -47 18 -51 2
-62 -9 -7 -29 -13 -45 -13 -15 0 -28 -5 -28 -11 0 -6 9 -9 20 -6 13 3 20 0 20
-9 0 -8 5 -14 10 -14 6 0 10 -13 10 -30 0 -16 4 -30 9 -30 5 0 8 12 7 28 0 15
4 28 9 29 11 2 12 -22 1 -54 -6 -19 -4 -22 9 -17 9 4 15 3 14 -2 -5 -27 4 -45
30 -60 17 -10 27 -22 24 -28 -3 -6 -2 -7 2 -3 15 13 14 39 -1 68 -8 16 -14 43
-14 61 l0 33 31 -53 c17 -29 29 -56 25 -59 -3 -3 -10 6 -15 20 -10 26 -31 46
-31 29 0 -16 41 -62 51 -57 5 4 9 0 9 -8 0 -17 24 -40 33 -31 3 4 -3 18 -13
33 -10 14 -34 52 -53 83 -18 32 -36 56 -38 53 -3 -2 -11 11 -18 30 -7 19 -17
35 -22 35 -6 0 -7 5 -4 10 3 6 2 10 -2 10 -5 0 -15 17 -22 38 -8 20 -24 53
-36 72 -12 19 -23 40 -24 45 -2 6 -18 44 -38 85 -67 144 -183 462 -183 501 0
6 -9 29 -20 51 -11 23 -20 49 -20 58 0 9 -9 52 -20 95 -30 117 -44 205 -90
560 -13 101 -13 553 -1 671 6 55 20 154 31 220 23 135 24 164 10 164 -6 0 -8
-12 -4 -27z m-59 -775 c-3 -7 -5 -2 -5 12 0 14 2 19 5 13 2 -7 2 -19 0 -25z
m45 -550 c-8 -8 -9 -4 -5 13 4 13 8 18 11 10 2 -7 -1 -18 -6 -23z m171 -678
c-4 -20 -2 -22 6 -10 6 8 11 10 11 4 0 -5 -7 -19 -16 -30 -8 -10 -13 -14 -10
-7 4 6 2 23 -4 38 -7 18 -7 24 0 20 7 -4 9 3 5 22 -4 22 -3 24 4 8 5 -11 7
-31 4 -45z m18 -53 c-10 -9 -11 -8 -5 6 3 10 9 15 12 12 3 -3 0 -11 -7 -18z
m177 -383 c-4 -3 -12 5 -18 18 -12 22 -12 22 6 6 10 -10 15 -20 12 -24z m90
-168 c14 -37 15 -61 2 -31 -8 18 -9 17 -9 -7 -1 -16 4 -28 9 -28 6 0 10 -8 10
-17 0 -10 7 -27 15 -37 19 -25 19 -37 0 -30 -8 4 -15 12 -15 20 0 8 -4 14 -8
14 -11 0 -33 120 -25 134 4 6 -1 5 -10 -3 -22 -17 -34 -8 -16 12 19 20 33 12
47 -27z"/>
<path d="M8124 5056 c-5 -14 16 -46 31 -46 3 0 5 12 3 27 -3 30 -25 42 -34 19z"/>
<path d="M8046 5035 c3 -16 9 -52 13 -80 5 -34 11 -49 20 -47 7 1 19 -3 27 -9
10 -8 14 -8 14 0 0 6 -4 11 -10 11 -5 0 -10 18 -10 40 0 43 -15 54 -24 18 -3
-13 -3 2 -1 32 2 35 0 48 -5 35 -8 -19 -8 -19 -19 5 -11 24 -11 24 -5 -5z m31
-117 c-3 -8 -6 -5 -6 6 -1 11 2 17 5 13 3 -3 4 -12 1 -19z"/>
<path d="M421 4974 c0 -11 3 -14 6 -6 3 7 2 16 -1 19 -3 4 -6 -2 -5 -13z"/>
<path d="M440 4928 c0 -36 4 -35 14 5 4 16 2 27 -4 27 -5 0 -10 -14 -10 -32z"/>
<path d="M8140 4935 c0 -8 5 -15 10 -15 6 0 10 7 10 15 0 8 -4 15 -10 15 -5 0
-10 -7 -10 -15z"/>
<path d="M360 4891 c0 -5 6 -12 13 -14 10 -4 10 -6 0 -6 -16 -1 -17 -47 -3
-56 6 -4 8 -16 4 -28 -3 -12 -3 -19 2 -14 9 9 15 85 8 110 -6 18 -24 24 -24 8z"/>
<path d="M8132 4880 c0 -14 2 -19 5 -12 2 6 2 18 0 25 -3 6 -5 1 -5 -13z"/>
<path d="M8070 4854 c0 -15 3 -23 8 -18 4 5 10 11 13 14 4 3 1 11 -7 18 -12
11 -14 8 -14 -14z"/>
<path d="M8051 4785 c0 -16 4 -88 10 -160 17 -195 17 -197 8 -380 -18 -353
-22 -387 -64 -595 -13 -63 -27 -135 -30 -160 -17 -110 -136 -467 -218 -652
-36 -82 -61 -148 -55 -148 5 0 6 -5 3 -10 -4 -6 -10 -8 -15 -5 -4 2 -14 -10
-21 -28 -22 -54 -182 -333 -221 -388 -18 -24 -16 -65 3 -53 12 7 11 -10 -1
-22 -12 -12 -3 -44 11 -44 5 0 9 16 9 35 0 24 5 35 15 35 8 0 15 4 15 9 0 5 9
11 21 14 12 3 18 10 15 15 -8 14 -48 2 -63 -17 -20 -27 -25 -5 -6 28 19 32 37
43 26 15 -4 -12 -2 -15 8 -12 16 6 13 39 -4 51 -8 6 -4 7 9 4 13 -3 21 1 21 9
0 8 -5 14 -10 14 -6 0 -7 3 -3 7 4 4 15 8 23 8 9 0 18 7 20 15 4 13 3 13 -6 0
-9 -13 -11 -13 -11 2 0 9 5 20 10 23 6 3 10 15 10 25 0 10 6 23 13 27 8 4 16
16 20 26 3 9 12 17 18 17 8 0 8 -5 -2 -16 -10 -13 -10 -17 1 -24 8 -5 11 -12
7 -17 -5 -4 -12 -1 -17 7 -7 11 -10 12 -10 2 0 -7 -4 -10 -10 -7 -5 3 -10 2
-10 -4 0 -5 5 -13 10 -16 6 -3 10 0 10 7 0 10 2 10 9 -1 14 -21 41 10 41 47 0
16 7 35 15 42 8 7 15 18 15 24 0 6 -5 4 -10 -4 -6 -9 -10 -10 -10 -3 0 6 -3
19 -7 29 -5 13 -3 16 10 11 11 -4 17 -1 17 9 0 8 -5 12 -11 8 -15 -9 6 31 39
75 l26 35 13 -30 12 -29 1 27 c0 14 -5 28 -11 30 -9 3 -9 17 -1 53 8 34 10 38
8 14 -3 -20 0 -42 6 -50 7 -10 7 -8 3 9 -5 18 -2 25 13 29 20 5 20 5 1 24 -24
24 -24 38 -1 34 9 -1 11 0 5 2 -17 6 -16 18 1 32 7 6 16 25 20 42 3 17 10 28
15 24 6 -3 4 -16 -4 -31 -12 -23 -11 -28 6 -45 24 -24 43 -16 27 11 -7 10 -16
16 -20 14 -4 -3 -8 2 -8 10 0 8 7 19 16 24 14 8 14 10 0 24 -13 14 -13 21 5
69 12 30 29 68 40 86 11 17 16 33 12 35 -5 1 -3 18 3 37 11 34 11 34 16 8 3
-15 1 -24 -3 -21 -11 7 -11 -7 0 -24 13 -22 21 11 11 47 -12 43 2 87 26 83 14
-2 16 -1 5 6 -9 7 -11 20 -6 43 5 28 25 96 31 107 1 1 8 0 16 -3 18 -7 12 -55
-7 -55 -7 0 -16 -16 -20 -36 -8 -46 -1 -54 14 -14 7 20 15 29 22 24 8 -4 9 -3
5 4 -4 7 -2 12 3 12 19 0 12 55 -9 73 -12 10 -18 22 -14 28 4 8 10 7 16 -2 7
-10 8 -8 3 6 -17 46 -17 56 0 81 10 15 15 38 12 53 -2 14 -1 37 3 51 6 18 9 7
10 -40 1 -47 4 -58 9 -40 4 14 7 62 7 107 -1 53 2 79 8 73 6 -6 18 -10 28 -10
9 0 21 -8 27 -17 5 -10 13 -14 18 -9 4 5 2 11 -4 13 -8 3 -13 22 -13 44 0 46
-16 52 -25 9 -6 -26 -9 -29 -21 -19 -22 18 -15 94 9 93 9 -1 17 4 17 12 0 8
-3 13 -7 11 -11 -3 -13 7 -11 66 l1 52 7 -50 c5 -32 6 -15 4 50 -3 75 -2 96 7
85 8 -11 9 -2 5 38 -5 52 0 62 22 40 9 -9 12 -4 13 23 1 18 1 37 0 42 0 4 -7
45 -15 91 -7 49 -10 101 -6 123 l8 38 1 -40 c1 -32 4 -37 12 -23 12 22 1 88
-15 85 -12 -2 -12 19 0 66 5 21 3 27 -7 25 -10 -2 -13 6 -12 27 2 17 4 48 6
70 2 22 1 45 -2 50 -3 6 -9 -17 -12 -50 l-6 -60 -2 75 c-2 82 -18 181 -20 125z
m51 -639 c-2 -5 -9 -1 -14 8 -5 9 -6 21 -2 28 9 14 25 -22 16 -36z m-105 -618
c-3 -8 -6 -5 -6 6 -1 11 2 17 5 13 3 -3 4 -12 1 -19z m-361 -993 c-3 -8 0 -15
6 -15 9 0 9 -3 0 -12 -6 -6 -14 -9 -18 -6 -6 7 4 48 13 48 3 0 3 -7 -1 -15z"/>
<path d="M8127 4794 c-8 -8 3 -34 15 -34 5 0 6 5 2 11 -3 6 0 15 7 20 11 7 11
9 -2 9 -9 0 -18 -3 -22 -6z"/>
<path d="M8082 4760 c0 -19 2 -27 5 -17 2 9 2 25 0 35 -3 9 -5 1 -5 -18z"/>
<path d="M412 4750 c0 -14 2 -19 5 -12 2 6 2 18 0 25 -3 6 -5 1 -5 -13z"/>
<path d="M375 4740 c4 -6 11 -8 16 -5 14 9 11 15 -7 15 -8 0 -12 -5 -9 -10z"/>
<path d="M8138 4720 c3 -20 1 -22 -7 -10 -14 20 -13 5 5 -55 13 -44 14 -45 10
-12 -3 22 -1 35 5 32 5 -4 9 -24 9 -45 0 -21 5 -42 10 -45 6 -4 9 -66 9 -158
-1 -93 -4 -139 -9 -117 l-7 35 -2 -32 c0 -17 -3 -37 -4 -45 -2 -7 -2 -10 0 -5
3 4 14 7 24 7 19 0 20 6 15 158 -6 188 -14 272 -28 272 -6 0 -8 10 -6 23 3 16
0 23 -12 23 -12 0 -15 -7 -12 -26z"/>
<path d="M8300 4720 c0 -16 5 -30 10 -30 6 0 10 14 10 30 0 17 -4 30 -10 30
-5 0 -10 -13 -10 -30z"/>
<path d="M400 4698 c0 -9 -6 -19 -12 -21 -10 -4 -10 -6 0 -6 6 -1 12 -13 13
-28 1 -23 3 -21 10 11 6 26 6 43 -1 50 -7 7 -10 5 -10 -6z"/>
<path d="M8107 4598 c-8 -28 4 -47 14 -22 11 27 11 44 0 44 -5 0 -11 -10 -14
-22z"/>
<path d="M4173 4600 c-54 -22 -68 -109 -29 -174 22 -36 24 -38 30 -18 4 12 12
22 17 22 6 0 3 10 -5 22 -20 27 -21 78 -3 102 14 19 58 19 100 1 10 -4 17 -3
17 4 0 6 -7 11 -15 11 -8 0 -15 5 -15 10 0 14 11 12 31 -6 17 -16 16 -49 -2
-38 -5 3 -9 -6 -9 -20 0 -14 5 -26 10 -26 6 0 10 8 10 18 0 9 5 24 10 32 7 11
9 3 8 -28 -1 -23 -4 -40 -6 -37 -3 3 -11 -4 -19 -15 -8 -11 -20 -20 -26 -20
-7 0 -3 7 7 15 11 8 17 17 14 21 -4 3 -16 -4 -27 -15 -12 -12 -26 -21 -32 -21
-5 0 -7 -5 -4 -10 5 -8 11 -7 21 1 10 8 14 8 14 0 0 -12 -11 -14 -47 -12 -11
1 -25 -3 -29 -10 -5 -9 -2 -10 10 -6 23 9 37 0 29 -19 -4 -11 -9 -12 -19 -3
-11 9 -22 8 -47 -4 -86 -41 -118 -132 -68 -193 45 -55 153 -72 224 -34 l37 20
17 -20 c10 -11 30 -20 46 -20 l28 0 -27 35 -26 35 21 49 c11 28 21 62 20 78
l-1 28 -8 -25 c-8 -24 -8 -24 -9 -2 -1 12 -5 22 -10 22 -15 0 -22 -47 -11 -74
13 -34 -6 -76 -34 -77 -18 -1 -17 -3 6 -12 14 -6 29 -20 32 -31 5 -20 5 -20
-9 -2 -9 12 -27 19 -47 19 -18 0 -25 2 -15 4 9 3 15 9 11 14 -3 5 3 12 13 16
24 9 33 23 32 53 -1 22 -2 21 -10 -7 -5 -18 -14 -33 -20 -33 -6 0 -7 5 -4 10
3 6 2 10 -4 10 -5 0 -12 -6 -15 -12 -3 -7 -3 -3 -1 9 4 15 -8 38 -46 83 l-51
62 51 47 c58 52 68 88 37 136 -27 41 -97 57 -153 35z m93 -7 c-8 -9 -76 -11
-71 -2 3 4 21 8 40 7 19 -1 33 -3 31 -5z m-110 -50 c-18 -18 -26 -21 -26 -11
0 18 24 41 33 31 4 -3 7 2 8 13 0 11 3 14 6 6 3 -7 -7 -24 -21 -39z m1 -42 c1
-14 -3 -18 -13 -14 -11 4 -12 9 -3 19 15 18 14 18 16 -5z m-7 -41 c0 -5 -2
-10 -4 -10 -3 0 -8 5 -11 10 -3 6 -1 10 4 10 6 0 11 -4 11 -10z m30 -19 c0
-12 -20 -25 -27 -18 -7 7 6 27 18 27 5 0 9 -4 9 -9z m30 -91 c6 -11 16 -17 22
-14 6 4 8 3 5 -3 -3 -5 4 -20 16 -34 30 -32 77 -94 77 -102 0 -3 -20 -13 -45
-22 -129 -50 -216 79 -110 163 15 12 22 22 16 22 -7 0 -19 -7 -27 -15 -16 -16
-34 -20 -34 -7 0 8 38 29 57 31 7 0 17 -8 23 -19z m37 4 c-3 -3 -12 -4 -19 -1
-8 3 -5 6 6 6 11 1 17 -2 13 -5z m44 -54 c16 -16 29 -35 29 -41 0 -6 -16 6
-35 27 -19 20 -35 38 -35 40 0 11 16 1 41 -26z m-185 -6 c-4 -9 -9 -15 -11
-12 -3 3 -3 13 1 22 4 9 9 15 11 12 3 -3 3 -13 -1 -22z m34 22 c0 -3 -4 -8
-10 -11 -5 -3 -10 -1 -10 4 0 6 5 11 10 11 6 0 10 -2 10 -4z m280 -29 c0 -5
-4 -5 -10 -2 -5 3 -10 14 -10 23 0 15 2 15 10 2 5 -8 10 -19 10 -23z m-310
-56 c0 -11 6 -21 13 -24 10 -4 10 -7 0 -18 -7 -7 -13 -11 -13 -8 0 2 -4 19 -9
37 -6 20 -6 32 0 32 5 0 9 -9 9 -19z m40 -61 c0 -5 -4 -10 -10 -10 -5 0 -10 5
-10 10 0 6 5 10 10 10 6 0 10 -4 10 -10z m140 -22 c-13 -5 -31 -7 -39 -5 -10
3 -8 5 6 6 12 0 25 6 28 11 4 6 11 7 17 4 7 -5 2 -11 -12 -16z m-80 2 c20 -6
21 -8 5 -8 -11 0 -29 3 -40 8 -25 11 1 11 35 0z"/>
<path d="M8140 4545 c0 -8 5 -15 10 -15 6 0 10 7 10 15 0 8 -4 15 -10 15 -5 0
-10 -7 -10 -15z"/>
<path d="M8151 4474 c0 -11 3 -14 6 -6 3 7 2 16 -1 19 -3 4 -6 -2 -5 -13z"/>
<path d="M8152 4405 c0 -16 2 -22 5 -12 2 9 2 23 0 30 -3 6 -5 -1 -5 -18z"/>
<path d="M343 4330 c0 -36 2 -50 4 -32 2 17 2 47 0 65 -2 17 -4 3 -4 -33z"/>
<path d="M8141 4133 c0 -25 1 -26 9 -8 12 27 12 35 0 35 -5 0 -10 -12 -9 -27z"/>
<path d="M401 4093 c0 -4 4 -17 9 -28 8 -19 9 -19 9 2 1 12 -3 25 -9 28 -5 3
-10 3 -9 -2z"/>
<path d="M8100 4090 c0 -5 4 -10 9 -10 6 0 13 5 16 10 3 6 -1 10 -9 10 -9 0
-16 -4 -16 -10z"/>
<path d="M8105 4057 c-4 -10 -5 -21 -1 -24 10 -10 18 4 13 24 -4 17 -4 17 -12
0z"/>
<path d="M8131 4044 c0 -11 3 -14 6 -6 3 7 2 16 -1 19 -3 4 -6 -2 -5 -13z"/>
<path d="M380 4036 c0 -2 7 -9 15 -16 12 -10 15 -10 15 4 0 9 -7 16 -15 16 -8
0 -15 -2 -15 -4z"/>
<path d="M410 3988 c0 -11 -5 -15 -15 -12 -8 4 -15 2 -15 -4 0 -5 11 -12 25
-14 26 -5 32 6 15 32 -8 13 -10 13 -10 -2z"/>
<path d="M404 3883 c0 -37 3 -57 7 -47 11 27 11 -2 0 -49 -5 -21 -5 -39 0 -43
5 -3 9 5 10 18 0 13 3 57 5 99 3 56 1 78 -8 82 -10 3 -13 -12 -14 -60z"/>
<path d="M8120 3876 c0 -25 5 -48 10 -51 6 -4 10 11 10 39 0 25 -4 48 -10 51
-6 4 -10 -11 -10 -39z"/>
<path d="M430 3873 c0 -5 5 -15 10 -23 8 -12 10 -11 10 8 0 12 -4 22 -10 22
-5 0 -10 -3 -10 -7z"/>
<path d="M8061 3774 c0 -11 3 -14 6 -6 3 7 2 16 -1 19 -3 4 -6 -2 -5 -13z"/>
<path d="M8108 3755 c2 -19 6 -35 8 -35 2 0 4 16 4 35 0 19 -4 35 -8 35 -4 0
-6 -16 -4 -35z"/>
<path d="M6066 3772 l-28 -4 4 -119 c3 -65 3 -119 0 -119 -3 0 -16 10 -30 23
-19 18 -35 22 -87 22 -78 0 -109 -20 -145 -91 -21 -41 -24 -63 -24 -139 0
-105 23 -163 77 -195 64 -40 151 -35 192 10 24 26 32 25 39 -5 5 -20 13 -25
38 -25 l31 0 -6 122 c-4 66 -7 210 -7 319 0 212 1 208 -54 201z m-66 -267 c43
-22 50 -43 50 -157 0 -110 -9 -132 -57 -157 -31 -16 -85 -14 -111 5 -38 26
-52 67 -52 149 0 80 22 144 57 164 26 15 80 13 113 -4z"/>
<path d="M6250 3740 l0 -41 38 3 c35 3 37 5 37 38 0 33 -2 35 -37 38 l-38 3 0
-41z"/>
<path d="M5597 3698 l-35 -53 25 -3 c21 -3 38 9 82 52 l56 56 -47 0 c-44 0
-47 -2 -81 -52z"/>
<path d="M3410 3690 c0 -39 1 -40 35 -40 34 0 35 1 35 40 0 39 -1 40 -35 40
-34 0 -35 -1 -35 -40z"/>
<path d="M3200 3600 c0 -66 -2 -120 -5 -120 -3 0 -15 8 -26 19 -27 25 -85 33
-134 20 -84 -23 -131 -122 -123 -254 6 -84 35 -145 84 -175 55 -35 155 -22
193 24 19 22 28 20 35 -9 5 -18 13 -25 31 -25 l25 0 0 178 c0 97 -3 241 -7
320 l-6 142 -34 0 -33 0 0 -120z m-25 -162 c20 -20 23 -36 28 -138 l5 -114
-30 -28 c-43 -40 -108 -40 -148 0 -52 52 -64 177 -25 253 32 61 124 76 170 27z"/>
<path d="M4565 3473 c6 -209 5 -231 -12 -263 -23 -44 -57 -62 -106 -56 -48 5
-64 19 -79 67 -10 36 -14 39 -46 39 -34 0 -35 0 -29 -37 13 -80 76 -126 171
-127 75 -1 127 27 156 85 18 35 20 59 20 279 l0 240 -41 0 -40 0 6 -227z"/>
<path d="M420 3673 c0 -15 -2 -16 -10 -3 -12 18 -12 2 0 -25 7 -17 9 -17 9 -2
1 9 8 17 16 17 13 0 15 -7 9 -35 -4 -21 -2 -35 4 -35 17 0 21 54 6 78 -17 26
-34 29 -34 5z"/>
<path d="M8047 3650 c13 -76 20 -85 20 -27 -1 31 -4 52 -8 46 -5 -8 -8 -7 -12
2 -3 8 -3 -2 0 -21z"/>
<path d="M1389 3643 l-136 -4 5 -297 c2 -163 6 -299 8 -301 1 -1 84 0 184 4
l181 8 -3 25 -3 25 -141 -2 -141 -2 -6 108 c-3 59 -3 111 0 115 2 5 58 8 124
8 l119 0 0 31 0 32 -125 -7 -125 -8 0 100 0 99 61 7 c34 3 97 6 140 6 l79 0 0
30 c0 29 -1 30 -42 28 -24 -1 -104 -4 -179 -5z"/>
<path d="M8130 3620 c-9 -6 -10 -10 -3 -10 6 0 15 5 18 10 8 12 4 12 -15 0z"/>
<path d="M2188 3558 c-3 -52 -4 -53 -35 -56 -27 -3 -33 -7 -33 -28 0 -21 5
-24 35 -24 l35 0 1 -147 c0 -90 5 -162 13 -183 15 -43 67 -73 111 -65 38 7 46
15 39 43 -5 16 -14 22 -34 22 -15 0 -32 6 -38 13 -5 6 -12 80 -14 164 l-3 152
40 3 c35 3 40 6 40 28 0 22 -5 25 -42 28 l-43 3 0 50 0 49 -34 0 -35 0 -3 -52z"/>
<path d="M7010 3589 c-65 -26 -111 -100 -118 -190 -5 -74 8 -125 44 -179 79
-117 265 -97 325 35 21 46 25 148 8 206 -15 50 -64 108 -105 125 -38 16 -117
17 -154 3z m150 -77 c48 -49 62 -130 35 -219 -18 -61 -41 -83 -93 -90 -76 -10
-122 37 -137 139 -9 62 16 150 51 177 41 32 108 29 144 -7z"/>
<path d="M6555 3576 c-67 -30 -108 -107 -108 -201 -1 -137 61 -223 172 -241
33 -5 52 -1 95 20 55 27 80 54 92 100 6 24 4 26 -28 26 -29 0 -37 -5 -50 -33
-28 -59 -120 -74 -163 -27 -59 65 -59 227 0 286 34 34 106 34 140 -1 14 -13
25 -33 25 -45 0 -16 6 -20 35 -20 29 0 35 4 35 20 0 35 -28 78 -67 105 -43 29
-126 34 -178 11z"/>
<path d="M6254 3519 c3 -34 6 -136 6 -227 l0 -164 38 7 c20 4 37 8 38 8 1 1
-1 100 -4 220 l-5 217 -40 0 -40 0 7 -61z"/>
<path d="M5365 3533 l-35 -36 0 32 c0 31 -1 32 -37 29 -21 -2 -37 -6 -35 -10
1 -5 2 -102 2 -218 l0 -210 40 0 41 0 -7 159 -7 160 31 30 c23 24 39 31 69 31
37 0 39 1 41 35 3 34 1 35 -32 35 -27 0 -43 -8 -71 -37z"/>
<path d="M5560 3345 l0 -225 40 0 40 0 0 83 c0 45 -3 146 -7 225 l-6 142 -34
0 -33 0 0 -225z"/>
<path d="M5060 3391 l0 -169 -30 -25 c-39 -33 -103 -44 -135 -23 -35 23 -45
74 -45 234 l0 142 -41 0 -42 0 7 -152 c4 -84 12 -170 17 -192 28 -103 166
-139 239 -61 31 33 40 31 40 -5 0 -28 3 -30 37 -30 l36 0 -6 152 c-4 83 -7
184 -7 225 l0 73 -35 0 -35 0 0 -169z"/>
<path d="M8070 3535 c-1 -25 -3 -26 -9 -11 -7 18 -8 18 -14 2 -11 -27 -9 -64
2 -47 7 11 9 11 14 0 2 -8 8 3 12 23 4 20 5 43 2 50 -3 7 -6 0 -7 -17z"/>
<path d="M3707 3519 c-75 -39 -115 -142 -98 -249 16 -95 59 -155 130 -179 134
-44 261 62 261 219 0 85 -54 180 -122 216 -39 20 -126 17 -171 -7z m162 -65
c18 -15 35 -42 42 -67 15 -55 6 -157 -16 -195 -48 -80 -164 -66 -201 24 -19
45 -18 145 2 194 29 71 115 93 173 44z"/>
<path d="M3416 3522 c-3 -6 -3 -107 1 -226 l6 -216 34 0 33 0 -2 223 -3 222
-32 3 c-17 2 -34 -1 -37 -6z"/>
<path d="M2741 3513 l-24 -5 6 -161 c7 -173 7 -176 -43 -210 -24 -17 -84 -23
-114 -11 -34 13 -41 48 -46 214 l-5 165 -39 3 -39 3 7 -167 c4 -100 12 -180
20 -198 20 -46 59 -77 104 -83 55 -7 85 2 125 37 37 32 47 30 47 -7 0 -19 5
-23 30 -23 l30 0 -2 222 c-3 240 -1 232 -57 221z"/>
<path d="M1779 3477 c-77 -51 -84 -144 -13 -186 20 -12 67 -30 105 -40 78 -21
109 -43 109 -78 0 -48 -39 -69 -120 -64 -35 2 -80 38 -80 64 0 9 -13 11 -40 9
-36 -4 -40 -6 -34 -26 21 -68 84 -108 173 -108 72 -1 125 22 151 64 21 35 26
88 10 118 -16 29 -71 58 -146 76 -79 18 -104 36 -104 74 0 35 29 60 77 67 32
4 45 0 71 -22 18 -15 32 -33 32 -41 0 -9 12 -14 35 -14 29 0 35 4 35 21 0 31
-35 74 -74 93 -52 24 -145 21 -187 -7z"/>
<path d="M8011 3484 c0 -11 3 -14 6 -6 3 7 2 16 -1 19 -3 4 -6 -2 -5 -13z"/>
<path d="M501 3400 c0 -8 4 -24 9 -35 5 -13 9 -14 9 -5 0 8 -4 24 -9 35 -5 13
-9 14 -9 5z"/>
<path d="M480 3360 c0 -5 5 -10 10 -10 6 0 10 5 10 10 0 6 -4 10 -10 10 -5 0
-10 -4 -10 -10z"/>
<path d="M7971 3354 c0 -11 3 -14 6 -6 3 7 2 16 -1 19 -3 4 -6 -2 -5 -13z"/>
<path d="M531 3335 c0 -12 8 -38 19 -60 13 -26 20 -33 20 -19 0 11 -6 28 -14
39 -7 11 -16 29 -19 40 -5 20 -5 20 -6 0z"/>
<path d="M490 3329 c-12 -7 -12 -9 3 -9 10 0 16 -3 13 -8 -2 -4 3 -23 11 -42
8 -19 17 -30 20 -23 2 7 -1 22 -8 35 -7 13 -12 28 -11 35 4 17 -11 23 -28 12z"/>
<path d="M483 3250 c-2 -23 2 -40 8 -40 6 0 8 10 5 23 -3 12 -3 16 0 10 3 -7
9 -13 14 -13 5 0 2 14 -6 30 -9 17 -16 30 -17 30 -1 0 -3 -18 -4 -40z"/>
<path d="M545 3220 c-3 -5 0 -7 9 -4 15 6 37 -23 35 -48 0 -7 -5 -3 -11 10
-14 29 -28 28 -28 -2 0 -30 36 -43 45 -16 13 40 -30 92 -50 60z"/>
<path d="M7915 3190 c-3 -5 -1 -10 4 -10 6 0 11 5 11 10 0 6 -2 10 -4 10 -3 0
-8 -4 -11 -10z"/>
<path d="M590 3120 c0 -5 5 -10 10 -10 6 0 10 5 10 10 0 6 -4 10 -10 10 -5 0
-10 -4 -10 -10z"/>
<path d="M567 3084 c2 -7 12 -15 20 -18 12 -5 13 -4 5 7 -7 8 -10 16 -7 19 3
2 -1 5 -9 5 -8 0 -12 -6 -9 -13z"/>
<path d="M7980 3070 c0 -11 5 -20 10 -20 6 0 10 9 10 20 0 11 -4 20 -10 20 -5
0 -10 -9 -10 -20z"/>
<path d="M7886 3071 c-3 -4 -2 -20 2 -35 l7 -27 12 30 c8 24 8 31 -3 35 -7 3
-16 2 -18 -3z"/>
<path d="M564 3035 c-3 -14 -4 -29 0 -32 3 -4 6 5 7 18 l1 24 8 -25 8 -25 1
27 c1 36 -17 45 -25 13z"/>
<path d="M7860 3031 c0 -5 -3 -18 -6 -28 -6 -16 -5 -16 9 2 19 23 21 35 7 35
-5 0 -10 -4 -10 -9z"/>
<path d="M480 3000 c0 -5 5 -10 10 -10 6 0 10 5 10 10 0 6 -4 10 -10 10 -5 0
-10 -4 -10 -10z"/>
<path d="M7940 3000 c0 -5 5 -10 10 -10 6 0 10 5 10 10 0 6 -4 10 -10 10 -5 0
-10 -4 -10 -10z"/>
<path d="M7900 2990 c0 -5 5 -10 10 -10 6 0 10 5 10 10 0 6 -4 10 -10 10 -5 0
-10 -4 -10 -10z"/>
<path d="M7836 2965 c-9 -24 -7 -35 4 -35 6 0 9 6 8 13 -2 6 5 11 15 11 22 -2
17 20 -5 24 -9 2 -18 -4 -22 -13z"/>
<path d="M641 2954 c0 -11 3 -14 6 -6 3 7 2 16 -1 19 -3 4 -6 -2 -5 -13z"/>
<path d="M661 2965 c0 -5 6 -21 14 -35 8 -14 14 -20 14 -15 0 6 -6 21 -14 35
-8 14 -14 21 -14 15z"/>
<path d="M7905 2950 c-3 -5 -1 -10 4 -10 6 0 11 5 11 10 0 6 -2 10 -4 10 -3 0
-8 -4 -11 -10z"/>
<path d="M648 2905 c-3 -14 -2 -25 2 -25 11 0 20 39 10 45 -4 3 -10 -6 -12
-20z"/>
<path d="M684 2884 c3 -9 6 -21 6 -27 0 -7 4 -7 9 2 10 16 4 41 -11 41 -6 0
-7 -7 -4 -16z"/>
<path d="M666 2855 c4 -8 8 -15 10 -15 2 0 4 7 4 15 0 8 -4 15 -10 15 -5 0 -7
-7 -4 -15z"/>
<path d="M7840 2860 c0 -5 9 -10 20 -10 11 0 20 5 20 10 0 6 -9 10 -20 10 -11
0 -20 -4 -20 -10z"/>
<path d="M646 2833 c-6 -14 -5 -15 5 -6 7 7 10 15 7 18 -3 3 -9 -2 -12 -12z"/>
<path d="M701 2831 c-11 -7 -9 -11 8 -20 21 -12 27 -6 13 16 -5 7 -13 9 -21 4z"/>
<path d="M700 2773 c0 -11 11 -32 25 -47 14 -15 25 -34 25 -44 0 -13 2 -14 13
-3 10 11 9 14 -1 18 -6 3 -10 9 -7 14 3 4 -3 14 -14 20 -10 7 -17 18 -15 24 3
7 -2 18 -11 25 -13 10 -15 9 -15 -7z"/>
<path d="M730 2780 c0 -5 5 -10 10 -10 6 0 10 5 10 10 0 6 -4 10 -10 10 -5 0
-10 -4 -10 -10z"/>
<path d="M740 2750 c0 -5 5 -10 10 -10 6 0 10 5 10 10 0 6 -4 10 -10 10 -5 0
-10 -4 -10 -10z"/>
<path d="M640 2720 c0 -5 5 -10 10 -10 6 0 10 5 10 10 0 6 -4 10 -10 10 -5 0
-10 -4 -10 -10z"/>
<path d="M720 2705 c0 -5 5 -17 10 -25 5 -8 10 -10 10 -5 0 6 -5 17 -10 25 -5
8 -10 11 -10 5z"/>
<path d="M7781 2664 c0 -11 3 -14 6 -6 3 7 2 16 -1 19 -3 4 -6 -2 -5 -13z"/>
<path d="M746 2634 c-3 -8 0 -22 8 -30 19 -19 32 -18 16 1 -7 8 -10 22 -6 30
3 8 1 15 -3 15 -5 0 -12 -7 -15 -16z"/>
<path d="M7680 2622 c0 -4 6 -14 13 -21 10 -11 9 -13 -3 -9 -12 4 -15 -4 -15
-42 0 -57 22 -58 27 -2 2 21 8 36 15 35 6 -1 14 5 18 15 3 9 3 13 -1 9 -4 -4
-18 0 -31 8 -13 9 -23 12 -23 7z"/>
<path d="M796 2591 c-4 -6 -3 -11 3 -11 5 0 13 -9 16 -21 4 -11 9 -18 12 -16
2 3 -2 18 -10 33 -9 17 -17 23 -21 15z"/>
<path d="M841 2551 c-1 -25 -5 -32 -16 -27 -8 3 -15 1 -15 -4 0 -5 14 -8 31
-8 16 1 26 4 21 7 -6 3 -12 20 -15 36 l-4 30 -2 -34z"/>
<path d="M7757 2552 c-19 -21 -22 -42 -7 -42 6 0 10 9 10 19 0 11 6 21 13 24
6 2 9 7 6 11 -3 3 -13 -2 -22 -12z"/>
<path d="M7658 2445 c-24 -31 -23 -55 1 -55 16 0 20 7 19 40 0 22 -1 40 -2 40
0 0 -9 -11 -18 -25z"/>
<path d="M7570 2392 c0 -7 7 -20 15 -28 8 -9 15 -11 15 -5 0 6 7 8 15 5 9 -4
15 0 15 10 0 18 -15 21 -25 5 -5 -6 -12 -4 -21 8 -9 12 -13 13 -14 5z"/>
<path d="M7646 2365 c-3 -9 0 -15 9 -15 9 0 12 6 9 15 -4 8 -7 15 -9 15 -2 0
-5 -7 -9 -15z"/>
<path d="M7560 2280 c0 -41 3 -50 18 -50 10 0 24 -9 32 -20 22 -30 30 -24 30
20 0 22 -4 40 -10 40 -5 0 -10 9 -10 20 0 13 -7 20 -20 20 -11 0 -20 5 -20 10
0 6 -4 10 -10 10 -5 0 -10 -22 -10 -50z"/>
<path d="M993 2248 c-1 -37 0 -39 6 -13 7 30 7 30 14 5 5 -19 9 -22 18 -13 9
9 5 18 -13 37 l-24 27 -1 -43z"/>
<path d="M1050 2243 c-1 -20 -46 -57 -59 -49 -5 4 -4 -5 2 -19 15 -32 27 -32
27 0 0 16 6 25 16 25 12 0 15 -7 12 -24 -3 -15 2 -27 14 -35 13 -8 18 -8 18 0
0 6 7 9 15 5 8 -3 15 0 15 7 1 7 8 -1 16 -16 18 -33 13 -45 -9 -22 -26 26 -32
17 -7 -11 19 -19 21 -27 11 -33 -10 -7 -9 -9 3 -14 12 -5 16 0 16 18 0 14 4
25 10 25 5 0 8 -16 5 -35 -4 -33 -3 -34 12 -19 14 13 14 17 2 26 -12 8 -12 9
1 5 8 -2 14 -12 14 -21 -1 -9 4 -16 12 -16 13 0 18 -11 15 -36 -1 -6 6 -18 16
-25 15 -12 16 -12 10 6 l-7 20 15 -20 c8 -11 22 -28 32 -38 10 -10 14 -18 8
-16 -5 1 -18 -1 -27 -5 -11 -5 -23 -2 -33 8 -10 9 -12 16 -5 16 7 0 5 8 -4 22
-9 12 -16 30 -16 39 0 9 -7 19 -15 23 -20 7 -19 -3 5 -42 11 -18 18 -37 15
-42 -7 -11 34 -50 51 -50 7 0 15 6 18 13 3 6 4 3 3 -8 -2 -14 -10 -20 -29 -20
-15 1 -24 -3 -22 -7 7 -10 45 -10 62 0 8 5 10 16 6 28 -4 10 -3 16 1 11 13
-11 13 -51 1 -59 -6 -4 -7 -10 -3 -14 9 -9 38 16 31 27 -3 5 2 6 10 3 16 -6
11 -33 -8 -46 -7 -5 -4 -13 8 -25 18 -16 19 -16 7 0 -13 16 -8 22 13 18 5 -1
5 6 2 16 -7 17 -6 17 10 1 14 -14 15 -20 5 -32 -10 -11 -9 -16 1 -23 8 -4 24
-21 37 -38 12 -16 27 -30 31 -30 10 0 39 -36 40 -49 0 -5 -7 -3 -15 4 -9 8
-15 9 -15 2 0 -6 5 -14 10 -17 6 -4 8 -10 6 -14 -4 -6 25 -7 42 -2 1 1 -9 19
-23 41 -14 22 -22 40 -17 40 10 0 42 -38 42 -51 0 -5 4 -8 9 -5 13 8 34 -21
25 -35 -5 -9 -10 -7 -16 7 -6 14 -7 11 -3 -9 4 -21 2 -27 -6 -21 -8 5 -9 3 -4
-6 6 -10 12 -8 27 10 10 12 21 20 25 16 3 -3 -2 -15 -12 -26 -18 -20 -18 -21
5 -45 13 -13 26 -23 30 -20 3 2 18 -2 33 -10 30 -16 34 -9 11 20 -11 13 -18
16 -21 8 -6 -17 -53 5 -53 25 0 13 3 13 18 -1 29 -26 38 -20 12 8 -13 14 -19
25 -13 25 5 0 27 -19 48 -43 31 -35 38 -51 38 -83 0 -21 7 -49 14 -61 8 -12
12 -27 8 -33 -7 -11 8 -28 42 -47 14 -8 24 -9 28 -3 4 6 19 9 33 8 15 -1 33 1
40 6 7 4 12 3 12 -3 0 -5 10 -13 23 -18 20 -7 27 -9 50 -12 9 -1 -18 -31 -27
-31 -3 0 -6 7 -6 15 0 14 -12 19 -32 16 -5 0 -8 4 -8 9 0 6 -7 10 -16 10 -8 0
-12 -4 -9 -10 3 -5 2 -10 -4 -10 -5 0 -12 6 -14 13 -3 7 -6 4 -6 -7 -1 -14 4
-17 23 -12 28 7 58 -17 50 -39 -9 -24 15 -17 40 10 30 32 38 32 26 -1 -6 -14
-6 -23 -1 -20 5 3 11 -3 14 -15 4 -17 2 -19 -16 -13 -44 14 -52 14 -29 3 12
-7 22 -16 22 -21 0 -4 14 -8 31 -8 28 0 29 1 15 16 -18 18 -21 34 -5 34 5 0 7
5 4 10 -4 6 -11 8 -16 5 -5 -4 -9 -1 -9 4 0 6 3 11 7 11 15 0 73 -46 73 -57 0
-18 -10 -16 -33 5 -19 17 -19 16 -6 -5 18 -30 31 -33 51 -13 17 16 16 18 -15
40 -69 50 -274 218 -337 275 -154 142 -353 361 -465 513 -22 28 -43 52 -47 52
-4 0 -8 5 -8 10 0 14 -93 150 -102 150 -4 0 -8 -8 -8 -17z m23 -30 c-5 -12 -3
-14 7 -8 8 5 11 4 6 -3 -3 -6 2 -15 11 -21 10 -5 15 -12 12 -16 -4 -3 -20 6
-35 21 -19 17 -25 28 -16 31 6 3 9 10 6 15 -4 7 -2 8 4 4 6 -4 8 -14 5 -23z
m7 -54 c0 -5 -4 -9 -10 -9 -5 0 -10 7 -10 16 0 8 5 12 10 9 6 -3 10 -10 10
-16z m345 -386 c37 -38 45 -56 20 -47 -8 4 -15 11 -15 16 0 6 -11 19 -25 30
-22 17 -33 38 -20 38 2 0 20 -16 40 -37z m306 -311 c-15 -5 10 -29 29 -29 17
0 143 -94 136 -101 -3 -2 -19 6 -35 18 -17 11 -39 20 -48 19 -25 -3 -84 21
-78 32 3 4 -6 26 -20 49 -27 42 -39 52 -28 23 4 -14 3 -15 -6 -7 -6 6 -9 18
-5 27 5 14 9 14 36 -6 16 -12 24 -23 19 -25z m-14 -63 c4 -20 11 -29 24 -29
11 0 19 -4 19 -10 0 -5 -6 -10 -12 -10 -20 1 -48 25 -48 41 0 8 -7 25 -16 38
-16 22 -16 23 5 12 12 -7 24 -25 28 -42z"/>
<path d="M1786 1395 c4 -8 10 -15 15 -15 4 0 6 7 3 15 -4 8 -10 15 -15 15 -4
0 -6 -7 -3 -15z"/>
<path d="M800 2240 c0 -5 5 -10 10 -10 6 0 10 5 10 10 0 6 -4 10 -10 10 -5 0
-10 -4 -10 -10z"/>
<path d="M965 2231 c-3 -5 -1 -12 5 -16 5 -3 10 1 10 9 0 18 -6 21 -15 7z"/>
<path d="M7365 2143 c-32 -43 -77 -103 -99 -133 -112 -153 -346 -397 -531
-554 -139 -119 -228 -185 -403 -302 -69 -46 -118 -84 -109 -84 10 0 17 6 17
13 0 8 3 8 8 2 10 -15 69 -18 78 -4 5 8 1 10 -13 7 -37 -10 -49 8 -16 25 19
10 34 12 44 6 34 -21 78 6 51 33 -7 7 -10 5 -9 -8 1 -11 -6 -20 -18 -22 -17
-3 -18 -1 -5 8 12 9 11 10 -7 5 -13 -3 -23 -4 -23 -2 0 2 31 25 70 51 38 26
77 54 86 63 13 13 19 14 33 5 31 -23 42 -24 54 -9 7 8 26 22 42 31 l30 17 -30
-6 c-16 -3 -37 -14 -46 -24 -13 -16 -18 -17 -34 -5 -10 8 -17 14 -14 15 2 0
14 2 26 3 25 3 44 16 24 16 -7 0 -9 5 -6 10 3 6 11 10 16 10 6 0 7 -4 4 -10
-3 -5 1 -10 11 -10 13 0 14 3 5 13 -8 11 -5 19 13 36 16 15 26 19 31 11 4 -6
16 -8 27 -4 14 4 18 3 13 -6 -4 -7 -17 -9 -32 -5 -16 4 -22 2 -18 -5 4 -6 3
-9 -2 -8 -4 2 -9 -1 -11 -7 -2 -12 19 -14 33 -4 6 4 22 6 36 5 18 -2 25 2 26
16 1 11 -5 18 -15 18 -13 0 -13 2 4 15 10 8 15 15 11 15 -5 0 -2 7 7 15 8 8
21 12 29 9 19 -7 28 8 17 25 -6 11 -15 8 -42 -13 -48 -36 -59 -33 -13 4 21 17
44 30 52 30 8 0 12 4 9 8 -6 11 30 42 49 42 9 0 12 6 9 15 -4 8 -2 15 4 15 5
0 35 25 65 55 30 30 58 55 62 55 4 0 3 -6 -3 -13 -6 -7 -10 -22 -8 -33 2 -10
1 -13 -1 -6 -6 17 -17 15 -36 -6 -15 -16 -15 -19 3 -30 12 -7 20 -8 20 -2 0 5
-5 10 -11 10 -5 0 -7 5 -4 11 5 6 12 4 20 -8 8 -10 9 -19 4 -21 -5 -2 -9 -15
-9 -28 0 -17 6 -24 20 -24 14 0 20 7 20 23 0 13 -4 27 -9 32 -11 12 -2 85 10
85 5 0 9 -7 9 -15 0 -8 2 -15 5 -15 10 0 45 35 45 45 0 5 -4 4 -9 -4 -6 -10
-13 -10 -28 -2 -11 5 -24 7 -28 3 -4 -4 -6 0 -3 8 3 8 12 14 21 12 8 -1 19 3
23 9 5 9 2 10 -11 5 -15 -5 -16 -4 -5 9 17 21 26 19 35 -7 l8 -23 4 25 c3 13
0 26 -5 28 -6 2 -8 10 -5 18 5 13 7 13 14 2 7 -10 9 -9 9 3 0 9 16 34 36 55
20 23 31 30 25 17 -24 -47 -5 -83 27 -51 14 14 16 52 2 43 -5 -3 -10 -16 -10
-28 0 -16 -3 -18 -12 -9 -9 9 -9 15 0 24 7 7 12 22 12 34 0 21 39 79 40 60 0
-5 -7 -17 -15 -26 -12 -13 -13 -22 -3 -47 l12 -31 28 29 c29 28 30 49 3 49 -8
0 -12 -6 -9 -15 9 -22 -5 -38 -22 -25 -11 10 -11 15 0 33 8 12 16 34 20 50 4
15 11 27 17 27 6 0 7 -4 4 -10 -10 -16 8 -11 33 10 13 11 24 32 25 49 1 20 8
32 21 35 11 3 16 10 13 19 -3 8 1 23 8 34 12 14 15 15 16 3 1 -8 1 -18 0 -22
-2 -12 13 -10 26 3 8 8 17 8 33 -1 15 -8 20 -8 16 -1 -9 14 6 15 20 1 6 -6 10
-3 10 9 0 11 -4 17 -8 15 -11 -7 -10 10 2 22 7 7 1 10 -16 9 -14 0 -31 -8 -38
-17 -12 -16 -14 -15 -25 10 -7 15 -9 24 -5 20 4 -5 16 6 26 23 10 16 22 27 27
24 9 -5 41 20 41 33 0 4 -4 13 -8 20 -6 9 -26 -10 -67 -65z m-15 -88 c0 -5 -5
-3 -10 5 -5 8 -10 20 -10 25 0 6 5 3 10 -5 5 -8 10 -19 10 -25z m50 10 c-7 -9
-15 -13 -18 -10 -3 2 1 11 8 20 7 9 15 13 18 10 3 -2 -1 -11 -8 -20z m-136
-97 c-7 -23 -32 -53 -39 -46 -4 4 34 68 42 68 2 0 1 -10 -3 -22z m-584 -588
c0 -5 8 -7 18 -4 14 5 14 4 2 -4 -8 -6 -17 -9 -21 -6 -4 2 -10 0 -14 -6 -4 -6
-11 -8 -16 -5 -5 4 -3 12 4 20 14 17 27 19 27 5z m30 -44 c0 -2 -7 -7 -16 -10
-8 -3 -12 -2 -9 4 6 10 25 14 25 6z"/>
<path d="M7511 2194 c0 -11 3 -14 6 -6 3 7 2 16 -1 19 -3 4 -6 -2 -5 -13z"/>
<path d="M7377 2121 c-22 -37 -22 -49 1 -25 9 11 25 20 35 19 9 0 17 3 17 8 0
4 0 12 0 17 0 18 -20 11 -21 -7 0 -17 -1 -17 -7 0 -6 15 -10 14 -25 -12z"/>
<path d="M7450 2120 c0 -5 5 -10 11 -10 5 0 7 5 4 10 -3 6 -8 10 -11 10 -2 0
-4 -4 -4 -10z"/>
<path d="M1048 2085 c2 -14 9 -25 14 -25 6 0 7 7 4 16 -3 9 -6 20 -6 25 0 5
-4 9 -9 9 -4 0 -6 -11 -3 -25z"/>
<path d="M7500 2090 c0 -11 5 -20 10 -20 6 0 10 9 10 20 0 11 -4 20 -10 20 -5
0 -10 -9 -10 -20z"/>
<path d="M1080 2091 c0 -6 5 -13 10 -16 6 -3 10 1 10 9 0 9 -4 16 -10 16 -5 0
-10 -4 -10 -9z"/>
<path d="M7365 2030 c-3 -5 1 -10 10 -10 9 0 13 5 10 10 -3 6 -8 10 -10 10 -2
0 -7 -4 -10 -10z"/>
<path d="M1125 1989 c-9 -14 -2 -20 14 -10 8 6 9 11 3 15 -6 3 -14 1 -17 -5z"/>
<path d="M7340 1990 c0 -5 5 -10 11 -10 5 0 7 5 4 10 -3 6 -8 10 -11 10 -2 0
-4 -4 -4 -10z"/>
<path d="M1236 1955 c-3 -9 0 -15 9 -15 9 0 12 6 9 15 -4 8 -7 15 -9 15 -2 0
-5 -7 -9 -15z"/>
<path d="M7312 1938 c-5 -21 -6 -21 -12 -3 -7 19 -7 19 -18 -1 -9 -18 -8 -20
10 -19 12 1 24 8 26 16 3 8 10 17 16 21 7 5 7 8 -2 8 -8 0 -16 -10 -20 -22z"/>
<path d="M1140 1918 c0 -27 11 -48 26 -48 19 0 17 10 -6 40 -15 19 -20 21 -20
8z"/>
<path d="M7246 1895 c-9 -26 -7 -32 5 -12 6 10 9 21 6 23 -2 3 -7 -2 -11 -11z"/>
<path d="M7266 1883 c-6 -14 -5 -15 5 -6 7 7 10 15 7 18 -3 3 -9 -2 -12 -12z"/>
<path d="M7200 1880 c0 -5 5 -10 10 -10 6 0 10 5 10 10 0 6 -4 10 -10 10 -5 0
-10 -4 -10 -10z"/>
<path d="M7079 1755 c-1 -3 -2 -9 -3 -14 0 -5 -4 -13 -8 -17 -12 -11 -10 -54
2 -54 6 0 10 11 10 24 0 14 5 28 12 32 6 4 8 3 5 -3 -4 -6 0 -14 8 -17 13 -5
13 -2 0 24 -15 28 -23 37 -26 25z"/>
<path d="M1365 1740 c-4 -6 -3 -10 2 -9 20 4 27 -2 13 -12 -13 -9 -12 -10 3
-5 13 4 17 -1 18 -22 1 -15 1 -30 0 -34 0 -5 4 -8 10 -8 6 0 9 6 6 14 -3 7 -1
18 4 23 6 6 2 19 -11 36 -23 29 -35 33 -45 17z"/>
<path d="M1280 1726 c0 -10 8 -16 22 -16 12 0 19 1 17 3 -2 1 -12 9 -21 16
-15 12 -18 11 -18 -3z"/>
<path d="M7097 1655 c-4 -8 -2 -17 2 -20 5 -2 11 4 14 15 6 23 -8 27 -16 5z"/>
<path d="M1453 1596 c-10 -11 -9 -15 1 -19 8 -3 16 3 19 14 6 22 -3 24 -20 5z"/>
<path d="M7032 1570 c0 -14 2 -19 5 -12 2 6 2 18 0 25 -3 6 -5 1 -5 -13z"/>
<path d="M1515 1560 c-3 -5 -1 -10 4 -10 6 0 11 5 11 10 0 6 -2 10 -4 10 -3 0
-8 -4 -11 -10z"/>
<path d="M1540 1540 c0 -5 5 -10 11 -10 5 0 7 5 4 10 -3 6 -8 10 -11 10 -2 0
-4 -4 -4 -10z"/>
<path d="M6861 1536 c-6 -7 -9 -21 -5 -30 6 -15 -5 -21 -30 -17 -30 6 -50 -61
-21 -73 9 -3 15 0 15 9 0 8 12 21 28 29 15 8 21 15 13 16 -14 0 -7 14 7 16 21
2 62 25 62 34 0 18 -48 11 -53 -7 -2 -10 -3 -6 -1 10 4 31 1 33 -15 13z m-27
-64 c2 -4 -4 -13 -14 -19 -17 -11 -20 -5 -11 25 2 5 20 1 25 -6z"/>
<path d="M1630 1486 c0 -9 5 -16 10 -16 6 0 10 4 10 9 0 6 -4 13 -10 16 -5 3
-10 -1 -10 -9z"/>
<path d="M1600 1420 c0 -5 5 -10 10 -10 6 0 10 5 10 10 0 6 -4 10 -10 10 -5 0
-10 -4 -10 -10z"/>
<path d="M6788 1393 c6 -2 18 -2 25 0 6 3 1 5 -13 5 -14 0 -19 -2 -12 -5z"/>
<path d="M1600 1380 c0 -5 9 -10 20 -10 11 0 20 5 20 10 0 6 -9 10 -20 10 -11
0 -20 -4 -20 -10z"/>
<path d="M1765 1329 c-4 -6 -5 -12 -2 -15 2 -3 7 2 10 11 7 17 1 20 -8 4z"/>
<path d="M6700 1280 c0 -5 5 -10 10 -10 6 0 10 5 10 10 0 6 -4 10 -10 10 -5 0
-10 -4 -10 -10z"/>
<path d="M1785 1260 c-3 -5 -1 -10 4 -10 6 0 11 5 11 10 0 6 -2 10 -4 10 -3 0
-8 -4 -11 -10z"/>
<path d="M6619 1268 c-7 -23 -5 -38 3 -36 14 5 20 38 7 38 -5 0 -9 -1 -10 -2z"/>
<path d="M1840 1240 c0 -5 5 -10 11 -10 5 0 7 5 4 10 -3 6 -8 10 -11 10 -2 0
-4 -4 -4 -10z"/>
<path d="M6509 1237 c8 -11 9 -17 3 -17 -6 0 -9 -7 -5 -16 9 -23 -18 -36 -33
-16 -10 14 -16 14 -39 4 -47 -22 -20 -46 29 -26 15 6 17 4 11 -6 -6 -10 -4
-11 6 -4 19 12 33 12 41 0 4 -6 10 -7 15 -3 4 5 1 12 -6 16 -10 7 -10 13 -2
29 15 28 14 29 -11 43 -21 11 -22 11 -9 -4z m-54 -61 c-11 -8 -24 -12 -29 -8
-5 3 -1 9 10 13 31 12 39 10 19 -5z"/>
<path d="M2039 1214 c-12 -15 -11 -16 9 -10 14 5 29 3 37 -4 20 -17 19 -27 -5
-33 -11 -3 -20 -1 -20 4 0 5 8 9 17 9 13 0 14 3 6 11 -14 14 -45 -12 -35 -28
10 -14 52 -26 52 -15 0 16 32 24 44 11 8 -9 7 -11 -4 -7 -8 3 -21 0 -27 -8
-10 -10 -8 -16 9 -28 14 -10 17 -16 9 -16 -8 0 -22 6 -31 13 -9 6 -5 2 8 -10
22 -22 49 -32 38 -15 -3 5 11 14 30 21 32 12 38 11 55 -7 13 -15 15 -22 6 -26
-7 -3 -3 -5 8 -5 42 2 45 0 38 -33 -4 -22 -3 -29 5 -24 7 4 12 14 12 22 0 8 5
14 11 14 6 0 9 -12 8 -27 -4 -45 29 -104 56 -102 6 0 4 3 -2 6 -15 5 -18 33
-3 33 5 0 13 -6 17 -13 6 -10 17 -9 51 8 l42 20 -47 25 c-64 33 -158 89 -276
166 -53 35 -99 64 -101 64 -2 0 -10 -7 -17 -16z m142 -81 c13 -15 12 -15 -11
-3 -23 12 -24 12 -11 -3 11 -15 11 -17 -2 -17 -8 0 -20 6 -26 14 -12 14 -6 18
30 25 4 0 13 -6 20 -16z m190 -116 c48 -25 50 -27 36 -42 -9 -9 -16 -10 -25
-2 -10 8 -16 7 -23 -4 -8 -12 -10 -12 -19 1 -5 8 -9 22 -9 30 0 9 2 11 5 3 3
-7 12 -9 21 -6 12 5 11 9 -8 19 -31 17 -9 18 22 1z m89 -41 c0 -2 -9 -6 -20
-9 -11 -3 -18 -1 -14 4 5 9 34 13 34 5z"/>
<path d="M2385 990 c3 -5 8 -10 11 -10 2 0 4 5 4 10 0 6 -5 10 -11 10 -5 0 -7
-4 -4 -10z"/>
<path d="M1920 1170 c0 -11 5 -20 10 -20 6 0 10 9 10 20 0 11 -4 20 -10 20 -5
0 -10 -9 -10 -20z"/>
<path d="M2008 1183 c6 -2 12 -11 12 -19 0 -8 4 -14 9 -14 5 0 7 9 4 20 -3 11
-13 20 -22 19 -10 0 -11 -2 -3 -6z"/>
<path d="M2000 1120 c0 -5 5 -10 10 -10 6 0 10 5 10 10 0 6 -4 10 -10 10 -5 0
-10 -4 -10 -10z"/>
<path d="M2062 1110 c0 -14 2 -19 5 -12 2 6 2 18 0 25 -3 6 -5 1 -5 -13z"/>
<path d="M1960 1103 c0 -5 5 -15 10 -23 8 -12 10 -11 10 8 0 12 -4 22 -10 22
-5 0 -10 -3 -10 -7z"/>
<path d="M6320 1100 c8 -5 22 -10 30 -10 13 0 13 1 0 10 -8 5 -22 10 -30 10
-13 0 -13 -1 0 -10z"/>
<path d="M6375 1090 c3 -5 11 -10 16 -10 6 0 7 5 4 10 -3 6 -11 10 -16 10 -6
0 -7 -4 -4 -10z"/>
<path d="M1928 1083 c7 -3 16 -2 19 1 4 3 -2 6 -13 5 -11 0 -14 -3 -6 -6z"/>
<path d="M2205 1080 c-3 -5 -21 -9 -39 -8 -18 1 -38 -2 -44 -6 -5 -3 -12 -1
-14 6 -6 17 -28 0 -28 -23 0 -17 7 -19 79 -19 65 0 80 3 85 17 4 10 4 14 0 10
-9 -9 -35 13 -28 24 3 5 3 9 0 9 -3 0 -8 -4 -11 -10z"/>
<path d="M6460 1080 c0 -5 5 -10 11 -10 5 0 7 5 4 10 -3 6 -8 10 -11 10 -2 0
-4 -4 -4 -10z"/>
<path d="M6188 1062 c-8 -18 -332 -180 -468 -234 -102 -41 -376 -134 -480
-163 -104 -29 -321 -71 -412 -81 -38 -4 -68 -10 -68 -13 0 -3 -23 -7 -50 -8
-28 0 -56 -5 -63 -11 -7 -6 -149 -9 -377 -7 -312 2 -383 5 -490 23 -112 18
-127 19 -142 5 -9 -8 -22 -12 -27 -8 -6 3 -11 1 -11 -5 0 -8 11 -9 31 -5 23 5
30 4 24 -5 -4 -7 -20 -10 -36 -8 -16 3 -29 1 -29 -4 0 -12 64 -10 78 4 6 6 15
8 19 4 4 -4 1 -12 -7 -17 -11 -8 -9 -9 10 -4 21 5 22 4 8 -5 -16 -10 -26 -50
-12 -50 12 0 30 26 26 38 -3 9 3 11 21 7 14 -4 28 -2 31 3 3 6 -2 8 -12 5 -11
-2 -25 2 -33 9 -8 8 -23 19 -34 26 -19 11 -18 11 6 12 15 0 29 -6 32 -14 3 -8
14 -15 24 -15 10 1 29 -2 43 -5 22 -5 21 -4 -5 9 -26 14 -27 15 -5 10 14 -3
42 -9 62 -12 21 -3 35 -10 32 -15 -4 -6 2 -7 15 -3 11 3 29 2 38 -4 10 -6 12
-11 6 -11 -7 0 -13 -7 -13 -15 0 -12 16 -15 82 -15 45 0 78 3 74 7 -4 5 -31 8
-59 8 -57 0 -74 19 -25 29 17 3 106 3 197 -1 l166 -8 -100 -6 c-81 -5 -73 -6
48 -4 81 2 147 -1 147 -6 0 -12 57 -11 65 1 4 6 -6 10 -24 10 -16 0 -33 5 -37
12 -5 8 8 10 49 5 37 -3 57 -2 57 5 0 13 109 1 128 -14 8 -7 16 -7 26 1 11 10
20 10 37 1 12 -7 19 -8 15 -2 -3 6 0 12 6 15 7 3 -9 3 -35 1 -27 -2 -56 0 -65
6 -14 7 -10 10 18 11 19 1 49 1 66 0 18 -1 35 2 39 8 3 6 16 11 28 10 20 -1
20 -2 -3 -9 l-25 -8 28 -1 c15 -1 30 5 33 12 3 9 23 14 52 16 26 1 54 4 64 7
9 2 19 0 23 -6 10 -15 29 -12 52 10 27 25 80 40 68 19 -5 -8 -5 -11 0 -7 4 4
13 4 19 -1 6 -4 24 -11 40 -15 25 -6 28 -5 17 8 -10 12 -9 15 6 19 17 4 17 5
1 6 -10 0 -18 6 -18 12 0 6 7 8 16 5 9 -4 13 -2 8 5 -5 8 6 10 37 5 26 -3 50
-2 59 5 11 8 6 9 -20 5 l-35 -5 34 11 c26 9 36 9 38 1 3 -7 11 -9 19 -6 13 5
13 7 2 14 -9 6 -6 9 12 9 14 0 38 9 54 19 17 11 33 18 37 15 5 -2 23 2 42 10
35 14 87 11 87 -5 0 -5 7 -9 15 -9 19 0 19 9 0 30 -14 16 -14 18 5 23 11 3 20
2 20 -2 0 -4 18 -8 40 -9 27 -1 39 2 37 11 -1 9 13 11 54 9 48 -2 59 1 83 23
15 14 31 25 36 25 10 0 8 24 -3 28 -16 5 -28 1 -23 -7 4 -5 -3 -7 -15 -4 -20
6 -20 6 -3 17 11 6 21 11 24 12 9 1 62 24 71 30 5 3 9 0 9 -5 0 -6 -7 -11 -15
-11 -16 0 -36 -39 -28 -52 2 -4 13 -2 24 5 10 6 15 13 9 15 -16 6 -12 22 6 22
11 0 15 6 11 20 -5 18 2 23 29 19 4 0 10 5 15 12 4 7 20 14 36 15 15 1 39 7
53 13 23 10 22 11 -10 6 -34 -6 -34 -5 14 20 53 28 56 28 59 -4 1 -13 8 -21
20 -21 10 0 15 5 11 11 -4 7 2 9 17 7 19 -2 23 1 21 17 -2 11 -10 25 -18 31
-19 15 -18 19 7 21 29 3 45 19 25 26 -8 3 -16 3 -18 -1z m-8 -68 c0 -8 -5 -14
-11 -14 -5 0 -7 6 -3 13 6 9 5 9 -7 0 -12 -10 -15 -9 -16 6 -1 14 4 17 18 14
10 -3 19 -12 19 -19z m-367 -164 c26 0 -20 -20 -47 -20 -28 0 -29 -1 -11 -14
17 -12 15 -13 -24 -9 -33 4 -45 1 -55 -13 -10 -12 -15 -14 -20 -5 -10 15 -14
12 59 44 33 14 66 24 73 21 8 -2 19 -4 25 -4z m-8 -40 c-3 -5 -12 -10 -18 -10
-7 0 -6 4 3 10 19 12 23 12 15 0z m-638 -166 c-3 -3 -12 -4 -19 -1 -8 3 -5 6
6 6 11 1 17 -2 13 -5z m-122 -24 c-3 -5 -16 -10 -28 -10 -18 0 -19 2 -7 10 20
13 43 13 35 0z m-1092 -67 c-7 -2 -19 -2 -25 0 -7 3 -2 5 12 5 14 0 19 -2 13
-5z"/>
<path d="M6230 1052 c0 -5 -10 -14 -22 -21 -23 -11 -23 -11 2 -5 25 7 25 6 6
-14 -18 -20 -18 -21 0 -20 14 2 19 10 20 35 1 18 0 33 -2 33 -2 0 -4 -4 -4 -8z"/>
<path d="M6216 965 c4 -8 10 -15 15 -15 5 0 9 7 9 15 0 8 -7 15 -15 15 -9 0
-12 -6 -9 -15z"/>
<path d="M2480 960 c-12 -7 -8 -11 18 -16 18 -4 35 -11 38 -15 3 -5 10 -7 15
-4 5 4 9 1 9 -4 0 -13 -6 -14 -29 -2 -19 11 -35 4 -45 -19 -3 -8 -4 -5 -2 7 2
13 0 25 -4 28 -5 3 -10 -2 -12 -12 -3 -15 -4 -15 -21 1 -10 10 -21 15 -25 11
-4 -4 -1 -10 6 -12 6 -3 12 -16 12 -29 0 -25 9 -28 48 -18 14 4 21 12 18 20
-6 17 3 18 38 4 17 -6 26 -6 26 0 0 6 5 10 10 10 6 0 10 -6 10 -14 0 -8 5 -18
12 -22 7 -4 8 -3 4 4 -4 7 -1 12 9 12 11 0 15 -5 12 -14 -3 -8 1 -17 9 -20 9
-3 12 -1 9 4 -3 6 -1 10 4 10 6 0 11 -7 11 -15 0 -8 -5 -15 -11 -15 -5 0 -7
-5 -3 -11 4 -7 9 -8 13 -1 7 12 61 4 61 -10 0 -6 19 -8 44 -7 24 2 43 2 40 0
-2 -2 4 -10 14 -17 15 -12 15 -15 2 -24 -21 -14 -30 -12 -30 6 0 9 5 12 12 8
7 -4 8 -3 4 4 -4 7 -26 12 -49 12 -31 0 -38 -3 -27 -10 8 -5 23 -7 33 -4 9 3
17 1 17 -5 0 -6 -16 -11 -35 -11 -19 0 -35 5 -35 10 0 6 -9 10 -20 10 -25 0
-26 17 -2 23 12 3 13 5 2 6 -8 0 -22 -4 -30 -9 -13 -8 -13 -11 -1 -19 7 -5 11
-13 7 -19 -3 -6 -1 -14 5 -18 8 -5 9 -3 4 6 -6 10 -1 12 25 7 18 -4 43 -7 57
-7 14 0 21 -4 18 -10 -4 -6 5 -10 21 -10 15 0 24 3 21 6 -7 8 36 44 52 44 6 0
10 -10 8 -21 -1 -12 4 -24 11 -26 6 -3 12 0 12 7 0 6 -4 8 -10 5 -5 -3 -10 -1
-10 4 0 14 17 14 26 0 3 -6 18 -8 33 -5 20 5 23 4 11 -4 -12 -9 -11 -10 7 -5
12 3 24 1 28 -5 3 -5 -1 -10 -10 -10 -9 0 -13 -4 -10 -10 3 -5 1 -10 -5 -10
-6 0 -13 7 -16 15 -8 20 -16 19 -44 -5 -25 -22 -20 -26 10 -10 13 7 21 7 25 0
9 -15 42 -12 49 5 7 19 34 19 77 1 l33 -14 -43 -12 c-24 -6 -41 -13 -38 -16 2
-3 24 2 48 10 54 19 62 20 53 4 -4 -7 -4 -10 1 -6 4 4 15 2 23 -5 13 -9 14 -9
8 1 -8 14 3 16 22 3 19 -12 -26 -23 -47 -12 -28 15 -81 1 -81 -20 0 -22 12
-24 39 -7 15 9 23 9 35 -1 9 -7 14 -16 12 -20 -2 -3 6 -6 17 -7 12 0 38 -3 57
-7 27 -5 30 -5 15 3 -16 8 -13 9 15 5 44 -7 28 7 -29 25 -44 14 -44 14 -15 22
31 8 53 5 136 -23 31 -10 71 -20 88 -21 29 -2 30 -3 13 -17 -15 -12 -16 -13
-1 -8 9 3 19 3 21 -1 2 -4 2 -1 1 6 -2 6 4 12 12 12 8 0 13 -4 9 -9 -8 -13 19
-18 100 -19 39 0 61 2 50 5 -11 2 -72 16 -135 30 -63 13 -149 34 -190 45 -41
11 -93 24 -115 30 -148 38 -535 193 -637 255 -43 26 -39 25 -58 13z m220 -110
c0 -5 -4 -10 -9 -10 -6 0 -13 5 -16 10 -3 6 1 10 9 10 9 0 16 -4 16 -10z m66
-28 c-10 -2 -22 0 -28 6 -6 6 0 7 19 4 21 -5 23 -7 9 -10z m79 -30 c-3 -3 -11
0 -18 7 -9 10 -8 11 6 5 10 -3 15 -9 12 -12z m340 -170 c-7 -7 -54 11 -59 23
-4 11 3 10 28 -3 19 -9 33 -18 31 -20z"/>
<path d="M6100 952 c0 -7 -9 -12 -19 -12 -25 0 -36 -16 -15 -24 10 -4 13 -2 8
6 -5 7 -2 9 9 5 15 -6 34 20 22 31 -3 3 -5 0 -5 -6z"/>
<path d="M5991 903 c1 -17 3 -21 6 -10 2 9 14 17 26 17 18 0 19 2 7 10 -27 17
-40 11 -39 -17z"/>
<path d="M6190 920 c0 -5 11 -10 25 -10 14 0 25 5 25 10 0 6 -11 10 -25 10
-14 0 -25 -4 -25 -10z"/>
<path d="M5950 880 c0 -11 5 -20 10 -20 6 0 10 9 10 20 0 11 -4 20 -10 20 -5
0 -10 -9 -10 -20z"/>
<path d="M2520 881 c0 -5 10 -11 23 -13 14 -2 21 -9 21 -21 -2 -24 12 -22 19
3 6 22 3 24 -35 34 -16 3 -28 2 -28 -3z"/>
<path d="M2528 843 c7 -3 16 -2 19 1 4 3 -2 6 -13 5 -11 0 -14 -3 -6 -6z"/>
<path d="M2600 846 c0 -2 7 -6 15 -10 8 -3 15 -1 15 4 0 6 -7 10 -15 10 -8 0
-15 -2 -15 -4z"/>
<path d="M2580 780 c0 -5 5 -10 10 -10 6 0 10 5 10 10 0 6 -4 10 -10 10 -5 0
-10 -4 -10 -10z"/>
<path d="M5900 779 c0 -5 5 -7 10 -4 6 3 10 8 10 11 0 2 -4 4 -10 4 -5 0 -10
-5 -10 -11z"/>
<path d="M2845 760 c-3 -5 -1 -10 4 -10 6 0 11 5 11 10 0 6 -2 10 -4 10 -3 0
-8 -4 -11 -10z"/>
<path d="M5478 713 c-10 -2 -18 -9 -18 -14 0 -12 17 -11 25 2 4 6 14 8 22 5 8
-3 11 -1 8 4 -6 10 -9 11 -37 3z"/>
<path d="M3000 701 c0 -4 11 -6 25 -3 14 2 25 6 25 8 0 2 -11 4 -25 4 -14 0
-25 -4 -25 -9z"/>
<path d="M2968 683 c7 -3 16 -2 19 1 4 3 -2 6 -13 5 -11 0 -14 -3 -6 -6z"/>
<path d="M5389 674 c-12 -15 -11 -16 11 -9 46 14 58 24 29 25 -15 0 -33 -7
-40 -16z"/>
<path d="M5473 683 c-14 -5 -18 -53 -5 -53 4 0 12 10 17 23 6 12 16 21 23 20
7 -2 12 2 12 7 0 10 -26 12 -47 3z"/>
<path d="M2890 660 c-12 -8 -10 -10 8 -10 13 0 20 4 17 10 -7 12 -6 12 -25 0z"/>
<path d="M3250 640 c34 -11 60 -11 35 0 -11 5 -29 8 -40 8 -16 0 -15 -2 5 -8z"/>
<path d="M5425 640 c3 -5 8 -10 11 -10 2 0 4 5 4 10 0 6 -5 10 -11 10 -5 0 -7
-4 -4 -10z"/>
<path d="M5580 622 c0 -18 5 -32 10 -32 6 0 8 11 4 28 -10 39 -14 40 -14 4z"/>
<path d="M5223 625 c0 -8 6 -15 13 -15 8 0 11 6 8 15 -4 8 -9 15 -13 15 -4 0
-8 -7 -8 -15z"/>
<path d="M5348 633 c18 -7 15 -23 -5 -23 -9 0 -14 -3 -10 -6 3 -3 15 -3 27 1
17 5 19 10 9 21 -6 8 -17 14 -23 13 -7 0 -6 -2 2 -6z"/>
<path d="M5290 626 c0 -2 7 -6 15 -10 8 -3 15 -1 15 4 0 6 -7 10 -15 10 -8 0
-15 -2 -15 -4z"/>
<path d="M3283 605 c0 -7 6 -11 13 -8 7 2 21 0 31 -5 12 -6 28 -5 47 3 l30 13
-34 7 c-22 5 -35 4 -38 -3 -2 -7 -11 -8 -26 -2 -16 6 -23 5 -23 -5z"/>
<path d="M3130 600 c-9 -6 -10 -10 -3 -10 6 0 15 5 18 10 8 12 4 12 -15 0z"/>
<path d="M3248 593 c7 -3 16 -2 19 1 4 3 -2 6 -13 5 -11 0 -14 -3 -6 -6z"/>
<path d="M5078 563 c5 -59 10 -63 11 -10 1 26 -3 47 -7 47 -4 0 -6 -17 -4 -37z"/>
<path d="M5218 593 c7 -3 16 -2 19 1 4 3 -2 6 -13 5 -11 0 -14 -3 -6 -6z"/>
<path d="M5268 593 c7 -3 16 -2 19 1 4 3 -2 6 -13 5 -11 0 -14 -3 -6 -6z"/>
<path d="M3370 580 c0 -5 7 -10 15 -10 8 0 15 5 15 10 0 6 -7 10 -15 10 -8 0
-15 -4 -15 -10z"/>
<path d="M3464 558 c-3 -4 6 -8 20 -8 14 0 26 -4 26 -10 0 -5 5 -10 11 -10 5
0 7 5 4 10 -3 6 4 10 16 10 12 0 19 3 15 8 -10 10 -86 10 -92 0z"/>
<path d="M3570 560 c0 -5 5 -10 10 -10 6 0 10 5 10 10 0 6 -4 10 -10 10 -5 0
-10 -4 -10 -10z"/>
<path d="M4905 560 c-4 -6 7 -10 25 -10 21 0 29 -4 24 -12 -4 -7 -3 -8 4 -4 6
4 9 13 5 21 -6 17 -49 20 -58 5z"/>
<path d="M5140 560 c0 -5 7 -10 15 -10 8 0 15 5 15 10 0 6 -7 10 -15 10 -8 0
-15 -4 -15 -10z"/>
<path d="M4872 548 c5 -12 -1 -18 -19 -23 -14 -3 -23 -8 -20 -11 2 -3 18 1 35
8 28 12 29 14 14 28 -14 13 -15 12 -10 -2z"/>
<path d="M5005 550 c-3 -5 -1 -10 4 -10 6 0 11 5 11 10 0 6 -2 10 -4 10 -3 0
-8 -4 -11 -10z"/>
<path d="M4805 530 c-13 -6 -15 -9 -5 -9 8 0 22 4 30 9 18 12 2 12 -25 0z"/>
<path d="M5185 530 c3 -5 8 -10 11 -10 2 0 4 5 4 10 0 6 -5 10 -11 10 -5 0 -7
-4 -4 -10z"/>
<path d="M3450 526 c0 -2 7 -6 15 -10 8 -3 15 -1 15 4 0 6 -7 10 -15 10 -8 0
-15 -2 -15 -4z"/>
<path d="M3820 526 c0 -2 7 -7 16 -10 8 -3 12 -2 9 4 -6 10 -25 14 -25 6z"/>
<path d="M4588 523 c7 -3 16 -2 19 1 4 3 -2 6 -13 5 -11 0 -14 -3 -6 -6z"/>
<path d="M3558 513 c12 -2 30 -2 40 0 9 3 -1 5 -23 4 -22 0 -30 -2 -17 -4z"/>
<path d="M4058 513 c18 -2 45 -2 60 0 15 2 0 4 -33 4 -33 0 -45 -2 -27 -4z"/>
<path d="M4595 510 l-40 -6 43 -5 c23 -2 42 0 42 5 0 5 3 6 7 2 13 -13 -29
-36 -63 -36 -18 0 -45 -5 -61 -11 -23 -9 -25 -12 -12 -19 8 -5 26 -6 39 -3 22
6 23 7 4 14 -11 4 5 6 37 5 32 0 55 -4 53 -7 -2 -4 4 -10 13 -14 10 -3 19 -1
21 4 2 6 9 11 16 11 6 0 12 8 13 19 1 14 -3 17 -19 13 -11 -2 -15 -8 -10 -11
6 -4 4 -11 -4 -19 -12 -11 -14 -9 -14 7 0 11 8 24 17 30 10 5 16 11 13 14 -11
10 -57 13 -95 7z"/>
<path d="M4103 493 c9 -2 23 -2 30 0 6 3 -1 5 -18 5 -16 0 -22 -2 -12 -5z"/>
<path d="M3520 480 c0 -5 9 -10 20 -10 11 0 20 5 20 10 0 6 -9 10 -20 10 -11
0 -20 -4 -20 -10z"/>
<path d="M4140 470 c-23 -7 -23 -8 -3 -9 12 -1 25 4 28 9 3 6 5 10 3 9 -2 -1
-14 -5 -28 -9z"/>
<path d="M4353 473 c9 -2 25 -2 35 0 9 3 1 5 -18 5 -19 0 -27 -2 -17 -5z"/>
<path d="M4088 463 c7 -3 16 -2 19 1 4 3 -2 6 -13 5 -11 0 -14 -3 -6 -6z"/>
<path d="M4312 455 c14 -15 21 -16 40 -7 23 11 23 11 1 11 -12 1 -30 4 -40 7
-17 6 -17 6 -1 -11z"/>
<path d="M4401 456 c-19 -11 -21 -14 -7 -19 10 -4 20 1 26 13 12 23 12 23 -19
6z"/>
<path d="M3920 449 c0 -5 10 -9 22 -9 12 0 18 3 14 7 -10 11 -36 12 -36 2z"/>
<path d="M4034 445 c36 -19 47 -19 22 0 -11 8 -27 15 -35 15 -9 0 -3 -7 13
-15z"/>
<path d="M4090 440 c-11 -7 -3 -10 30 -10 33 0 41 3 30 10 -8 5 -22 10 -30 10
-8 0 -22 -5 -30 -10z"/>
<path d="M4239 445 c-3 -2 -19 -5 -37 -7 -40 -3 -31 -12 13 -13 20 -1 36 4 39
12 5 12 -5 18 -15 8z"/>
</g>
</svg>
